<svg width="20" height="18" viewBox="0 0 20 18" fill="none" xmlns="http://www.w3.org/2000/svg">
<path d="M17.6953 6C17.6953 5.73478 17.5917 5.48051 17.4073 5.29297C17.246 5.12883 17.0344 5.02757 16.8092 5.00488L16.7123 5H15.7983C15.3131 5.00007 14.8352 4.87824 14.4072 4.64551C13.9792 4.41264 13.6139 4.07576 13.3445 3.66504L13.3435 3.66406L12.5457 2.44434C12.456 2.30781 12.3348 2.19566 12.1924 2.11816C12.0498 2.04054 11.8896 1.99998 11.7278 2H7.93372C7.77191 1.99998 7.61174 2.04054 7.46906 2.11816C7.32651 2.19579 7.20551 2.30849 7.11577 2.44531L7.11481 2.44434L6.31798 3.66406L6.31702 3.66504C6.04762 4.07576 5.68229 4.41264 5.25427 4.64551C4.87975 4.84919 4.4671 4.96774 4.04462 4.99414L3.86318 5H2.94922C2.6885 5 2.43852 5.10543 2.25416 5.29297C2.0698 5.4805 1.96615 5.73478 1.96615 6V15C1.96615 15.2652 2.0698 15.5195 2.25416 15.707C2.43852 15.8946 2.6885 16 2.94922 16H16.7123C16.973 16 17.223 15.8946 17.4073 15.707C17.5917 15.5195 17.6953 15.2652 17.6953 15V6ZM19.6615 15C19.6615 15.7957 19.3506 16.5585 18.7975 17.1211C18.2444 17.6837 17.4945 18 16.7123 18H2.94922C2.16704 18 1.41712 17.6837 0.864031 17.1211C0.310944 16.5585 0 15.7956 0 15V6C0 5.20435 0.310944 4.44152 0.864031 3.87891C1.41712 3.3163 2.16704 3 2.94922 3H3.86318C4.02498 3.00002 4.18515 2.95946 4.32783 2.88184C4.47038 2.80421 4.59139 2.69151 4.68113 2.55469L5.47987 1.33496C5.74928 0.924239 6.11461 0.587363 6.54263 0.354492C6.97057 0.121756 7.44846 -7.38342e-05 7.93372 3.35704e-08H11.7278C12.213 -7.38342e-05 12.6909 0.121756 13.1189 0.354492C13.5469 0.587363 13.9122 0.924239 14.1816 1.33496L14.1826 1.33594L14.9794 2.55469C15.0692 2.69151 15.1911 2.80421 15.3337 2.88184C15.4763 2.95946 15.6365 3.00002 15.7983 3H16.7123C17.4945 3 18.2444 3.3163 18.7975 3.87891C19.3506 4.44151 19.6615 5.20435 19.6615 6V15Z" fill="white"/>
<path d="M11.7969 10C11.7969 8.89543 10.9166 8 9.83074 8C8.74486 8 7.86459 8.89543 7.86459 10C7.86459 11.1046 8.74486 12 9.83074 12C10.9166 12 11.7969 11.1046 11.7969 10ZM13.763 10C13.763 12.2091 12.0025 14 9.83074 14C7.65899 14 5.89844 12.2091 5.89844 10C5.89844 7.79086 7.65899 6 9.83074 6C12.0025 6 13.763 7.79086 13.763 10Z" fill="white"/>
</svg>
