<svg width="24" height="24" viewBox="0 0 24 24" fill="none" xmlns="http://www.w3.org/2000/svg">
<path d="M2.99082 16.3357C3.13781 16.7065 3.17053 17.1128 3.08479 17.5023L2.02019 20.791C1.98589 20.9578 1.99476 21.1306 2.04596 21.293C2.09716 21.4554 2.18899 21.602 2.31275 21.719C2.43651 21.8359 2.58809 21.9193 2.75311 21.9612C2.91814 22.0032 3.09115 22.0023 3.25572 21.9586L6.66742 20.961C7.035 20.8881 7.41567 20.9199 7.766 21.0529C9.90058 22.0498 12.3186 22.2607 14.5935 21.6484C16.8685 21.0362 18.854 19.6401 20.2 17.7066C21.5459 15.773 22.1656 13.4263 21.9499 11.0803C21.7341 8.73433 20.6968 6.53994 19.0208 4.8843C17.3448 3.22866 15.1379 2.21816 12.7895 2.03109C10.441 1.84402 8.10201 2.4924 6.18505 3.86183C4.26809 5.23127 2.89639 7.23375 2.31198 9.51598C1.72756 11.7982 1.96798 14.2135 2.99082 16.3357Z" stroke="#569F87" stroke-width="1.49943" stroke-linecap="round" stroke-linejoin="round"/>
</svg>
