<svg width="20" height="20" viewBox="0 0 20 20" fill="none" xmlns="http://www.w3.org/2000/svg">
<path d="M11.6665 17.4995V10.8336H8.33356V17.4995C8.33356 17.9599 7.96032 18.3332 7.49991 18.3332C7.0395 18.3332 6.66626 17.9599 6.66626 17.4995V10.8336C6.66626 10.3914 6.84211 9.96735 7.15473 9.65473C7.46735 9.34211 7.89145 9.16626 8.33356 9.16626H11.6665C12.1087 9.16626 12.5328 9.34211 12.8454 9.65473C13.1579 9.96733 13.3338 10.3915 13.3338 10.8336V17.4995C13.3338 17.9598 12.9605 18.333 12.5002 18.3332C12.0398 18.3332 11.6665 17.9599 11.6665 17.4995Z" fill="white"/>
<path d="M16.6663 8.33294C16.6663 8.21179 16.6399 8.09194 16.5889 7.98205C16.5379 7.87218 16.4633 7.77449 16.3708 7.6963L16.3667 7.69305L10.5376 2.69602V2.69684C10.3873 2.56976 10.1964 2.49982 9.99951 2.49982C9.8028 2.49992 9.61245 2.56985 9.4622 2.69684L9.46139 2.69602L3.63316 7.69305L3.62908 7.6963C3.53657 7.77449 3.4619 7.87218 3.4109 7.98205C3.35991 8.09194 3.33355 8.2118 3.33356 8.33294V15.8334C3.33359 16.0542 3.42162 16.2658 3.5778 16.422C3.73397 16.5781 3.94553 16.6661 4.1664 16.6662H15.8334C16.0543 16.6661 16.2659 16.5781 16.422 16.422C16.5782 16.2658 16.6662 16.0542 16.6663 15.8334V8.33294ZM18.3336 15.8334C18.3336 16.4964 18.0698 17.1327 17.6009 17.6016C17.1321 18.0702 16.4963 18.3334 15.8334 18.3335H4.1664C3.50352 18.3334 2.86778 18.0702 2.39896 17.6016C1.93009 17.1327 1.66629 16.4964 1.66626 15.8334V8.33294C1.66625 7.9694 1.74526 7.61006 1.89828 7.28029C2.05137 6.95038 2.27505 6.6578 2.55283 6.42303L8.38187 1.42682L8.38594 1.42357L8.56098 1.28842C8.98069 0.993005 9.48271 0.832601 9.99951 0.83252C10.5165 0.83252 11.019 0.992922 11.4389 1.28842L11.6139 1.42357L11.618 1.42682L17.447 6.42303C17.7248 6.6578 17.9485 6.95038 18.1016 7.28029C18.2546 7.61006 18.3336 7.9694 18.3336 8.33294V15.8334Z" fill="white"/>
</svg>
