<svg width="23" height="23" viewBox="0 0 23 23" fill="none" xmlns="http://www.w3.org/2000/svg">
<path opacity="0.987" fill-rule="evenodd" clip-rule="evenodd" d="M10.363 1.52519C11.4052 1.40876 12.0219 1.40876 13.1417 1.52519C15.1239 1.81858 16.9614 2.73483 18.3885 4.14144C17.4242 5.05301 16.4724 5.97789 15.5337 6.91582C13.7358 5.39207 11.7291 5.04036 9.51342 5.86069C7.88808 6.60819 6.75629 7.81953 6.11804 9.49469C5.07505 8.7182 4.04565 7.92362 3.03029 7.11132C2.95973 7.07418 2.87914 7.06058 2.80029 7.07251C4.41317 3.96271 6.93359 2.11313 10.3615 1.52376" fill="#F44336"/>
<path opacity="0.997" fill-rule="evenodd" clip-rule="evenodd" d="M2.79737 7.07252C2.87883 7.06006 2.95598 7.07299 3.02881 7.11133C4.04416 7.92363 5.07357 8.71821 6.11656 9.4947C5.95243 10.1474 5.84897 10.8139 5.8075 11.4856C5.84295 12.1354 5.94598 12.7732 6.11656 13.399L2.875 15.9793C1.46337 13.0295 1.4375 10.0606 2.79737 7.07252Z" fill="#FFC107"/>
<path opacity="0.999" fill-rule="evenodd" clip-rule="evenodd" d="M18.2347 19.1044C17.2254 18.2142 16.1687 17.3793 15.0694 16.6031C16.1714 15.825 16.8404 14.7574 17.0761 13.4004H11.6754V9.64993C14.79 9.62406 17.9031 9.65041 21.0149 9.729C21.6052 12.9346 20.9233 15.825 18.9693 18.4C18.7369 18.647 18.4908 18.8821 18.2347 19.1044Z" fill="#448AFF"/>
<path opacity="0.993" fill-rule="evenodd" clip-rule="evenodd" d="M6.11656 13.4004C7.29531 16.33 9.45635 17.6976 12.5997 17.503C13.4821 17.4009 14.3281 17.0926 15.0693 16.6031C16.1695 17.3813 17.2246 18.2151 18.2347 19.1044C16.6342 20.5425 14.5937 21.3959 12.4459 21.5251C11.9579 21.5642 11.4676 21.5642 10.9796 21.5251C7.32071 21.0939 4.61917 19.2453 2.875 15.9793L6.11656 13.4004Z" fill="#43A047"/>
</svg>
