<svg width="48" height="48" viewBox="0 0 48 48" fill="none" xmlns="http://www.w3.org/2000/svg">
<path d="M0 14C0 6.268 6.26801 0 14 0H33.9923C41.7243 0 47.9923 6.26801 47.9923 14V33.9923C47.9923 41.7243 41.7243 47.9923 33.9923 47.9923H14C6.268 47.9923 0 41.7243 0 33.9923V14Z" fill="#FE9A00"/>
<path d="M26.995 32.9928V27.9947C26.995 27.7296 26.8897 27.4754 26.7022 27.2879C26.5148 27.1004 26.2605 26.9951 25.9954 26.9951H21.9969C21.7318 26.9951 21.4776 27.1004 21.2901 27.2879C21.1026 27.4754 20.9973 27.7296 20.9973 27.9947V32.9928" stroke="white" stroke-width="1.99924" stroke-linecap="round" stroke-linejoin="round"/>
<path d="M29.7679 22.3068C29.5596 22.1073 29.2822 21.996 28.9937 21.996C28.7053 21.996 28.4279 22.1073 28.2195 22.3068C27.7547 22.7502 27.137 22.9975 26.4947 22.9975C25.8523 22.9975 25.2347 22.7502 24.7698 22.3068C24.5615 22.1076 24.2844 21.9965 23.9961 21.9965C23.7079 21.9965 23.4308 22.1076 23.2224 22.3068C22.7576 22.7505 22.1397 22.998 21.4971 22.998C20.8545 22.998 20.2366 22.7505 19.7718 22.3068C19.5634 22.1073 19.286 21.996 18.9975 21.996C18.7091 21.996 18.4317 22.1073 18.2233 22.3068C17.7744 22.7353 17.182 22.9813 16.5616 22.9971C15.9412 23.0129 15.3371 22.7973 14.8669 22.3922C14.3967 21.9871 14.0941 21.4216 14.0179 20.8056C13.9417 20.1897 14.0975 19.5675 14.4548 19.0601L17.3427 14.8777C17.5259 14.6073 17.7726 14.3859 18.0612 14.2329C18.3498 14.0799 18.6714 13.9999 18.998 14H28.9942C29.3199 13.9999 29.6407 14.0793 29.9287 14.2314C30.2166 14.3835 30.4631 14.6036 30.6466 14.8727L33.5405 19.0631C33.8979 19.5709 34.0534 20.1936 33.9768 20.8098C33.9001 21.4261 33.5968 21.9917 33.1258 22.3965C32.6549 22.8013 32.0501 23.0162 31.4294 22.9995C30.8086 22.9827 30.2163 22.7354 29.7679 22.3058" stroke="white" stroke-width="1.99924" stroke-linecap="round" stroke-linejoin="round"/>
<path d="M15.9993 22.9465V30.9935C15.9993 31.5237 16.2099 32.0322 16.5848 32.4071C16.9598 32.7821 17.4683 32.9927 17.9985 32.9927H29.9939C30.5242 32.9927 31.0327 32.7821 31.4076 32.4071C31.7825 32.0322 31.9932 31.5237 31.9932 30.9935V22.9465" stroke="white" stroke-width="1.99924" stroke-linecap="round" stroke-linejoin="round"/>
</svg>
