<svg width="76" height="46" viewBox="0 0 76 46" fill="none" xmlns="http://www.w3.org/2000/svg">
<path d="M30.6874 5.89551H45.5109C46.0406 5.89551 46.4681 6.31382 46.4681 6.83203V42.3762C46.4681 42.8945 46.0406 43.3128 45.5109 43.3128H30.6874C30.1578 43.3128 29.7302 42.8945 29.7302 42.3762V6.83203C29.7302 6.31382 30.1578 5.89551 30.6874 5.89551Z" fill="#735459"/>
<path d="M46.4681 6.82568V18.2325H29.7302V6.82568C29.7302 6.31372 30.1578 5.88916 30.6874 5.88916H45.5173C46.0469 5.88916 46.4745 6.30747 46.4745 6.82568H46.4681Z" fill="#FFB001"/>
<path d="M33.3994 5.89549V3.34815C33.3994 2.57395 34.0439 1.94336 34.8352 1.94336H42.0076C42.7989 1.94336 43.4434 2.57395 43.4434 3.34815V5.89549H33.3994Z" fill="#BBB7BF"/>
<path opacity="0.3" d="M37.7769 1.94336H35.5371C34.7458 1.94336 34.1013 2.57395 34.1013 3.34815V5.89549H37.611V2.74253C37.611 2.45533 37.6748 2.18061 37.7769 1.94336Z" fill="white"/>
<path d="M43.9603 45.6478H32.238C31.517 45.6478 30.9363 45.1234 30.9363 44.4803V43.3127H45.2684V44.4803C45.2684 45.1296 44.6814 45.6478 43.9667 45.6478H43.9603Z" fill="#BBB7BF"/>
<path opacity="0.3" d="M36.3794 45.2545V43.3127H32.3401V44.4803C32.3401 45.1296 33.0356 45.6478 33.8971 45.6478H36.4177C36.3985 45.5229 36.3858 45.3856 36.3858 45.2545H36.3794Z" fill="white"/>
<path opacity="0.2" d="M43.4434 4.95898H33.3994V5.89551H43.4434V4.95898Z" fill="black"/>
<path d="M38.1023 15.242C37.7131 15.242 37.4004 14.936 37.4004 14.5552V9.57912C37.4004 9.19826 37.7131 8.89233 38.1023 8.89233C38.4916 8.89233 38.8043 9.19826 38.8043 9.57912V14.5552C38.8043 14.936 38.4916 15.242 38.1023 15.242Z" fill="#FAEDC6"/>
<path d="M40.642 12.7508H35.5562C35.1669 12.7508 34.8542 12.4448 34.8542 12.064C34.8542 11.6831 35.1669 11.3772 35.5562 11.3772H40.642C41.0312 11.3772 41.3439 11.6831 41.3439 12.064C41.3439 12.4448 41.0312 12.7508 40.642 12.7508Z" fill="#FAEDC6"/>
<path d="M40.642 39.3543H35.5562C35.1669 39.3543 34.8542 39.0483 34.8542 38.6675C34.8542 38.2866 35.1669 37.9807 35.5562 37.9807H40.642C41.0312 37.9807 41.3439 38.2866 41.3439 38.6675C41.3439 39.0483 41.0312 39.3543 40.642 39.3543Z" fill="#FAEDC6"/>
<path d="M38.1024 34.166C42.0636 34.166 45.2749 31.0241 45.2749 27.1483C45.2749 23.2725 42.0636 20.1306 38.1024 20.1306C34.1412 20.1306 30.9299 23.2725 30.9299 27.1483C30.9299 31.0241 34.1412 34.166 38.1024 34.166Z" fill="#FAEDC6"/>
<path d="M34.2927 26.8548H32.7166C32.7166 23.9516 35.1286 21.5916 38.0959 21.5916C40.0677 21.5916 41.88 22.6467 42.8244 24.3449L41.4396 25.0817C40.7696 23.8829 39.487 23.1337 38.0959 23.1337C35.9965 23.1337 34.2863 24.807 34.2863 26.8611L34.2927 26.8548Z" fill="#75C01F"/>
<path d="M40.425 24.7383L42.7031 26.8549L43.437 23.8643L40.425 24.7383Z" fill="#75C01F"/>
<path d="M38.1022 32.6988C36.1305 32.6988 34.3182 31.6437 33.3738 29.9454L34.7585 29.2087C35.4285 30.4074 36.7111 31.1567 38.1022 31.1567C40.2017 31.1567 41.9118 29.4834 41.9118 27.4355H43.488C43.488 30.3388 41.0759 32.6988 38.1086 32.6988H38.1022Z" fill="#75C01F"/>
<path d="M35.7731 29.5521L33.495 27.4355L32.7676 30.4262L35.7731 29.5521Z" fill="#75C01F"/>
<path opacity="0.2" d="M45.2684 43.3064H30.9363V44.0306H45.2684V43.3064Z" fill="black"/>
<path opacity="0.3" d="M35.9455 5.89551H31.7084C31.2809 5.89551 30.9363 6.31382 30.9363 6.83203V42.3762C30.9363 42.8945 31.2809 43.3128 31.7084 43.3128H35.9519V5.89551H35.9455Z" fill="white"/>
</svg>
