<svg width="48" height="48" viewBox="0 0 48 48" fill="none" xmlns="http://www.w3.org/2000/svg">
<path d="M0 14C0 6.268 6.26801 0 14 0H33.9923C41.7243 0 47.9923 6.26801 47.9923 14V33.9923C47.9923 41.7243 41.7243 47.9923 33.9923 47.9923H14C6.268 47.9923 0 41.7243 0 33.9923V14Z" fill="#3563D1"/>
<path d="M21.9968 22.9966V28.9943" stroke="white" stroke-width="1.99924" stroke-linecap="round" stroke-linejoin="round"/>
<path d="M25.9954 22.9966V28.9943" stroke="white" stroke-width="1.99924" stroke-linecap="round" stroke-linejoin="round"/>
<path d="M30.9934 17.9985V31.9932C30.9934 32.5234 30.7828 33.0319 30.4079 33.4069C30.0329 33.7818 29.5244 33.9924 28.9942 33.9924H18.998C18.4678 33.9924 17.9593 33.7818 17.5843 33.4069C17.2094 33.0319 16.9988 32.5234 16.9988 31.9932V17.9985" stroke="white" stroke-width="1.99924" stroke-linecap="round" stroke-linejoin="round"/>
<path d="M14.9995 17.9985H32.9926" stroke="white" stroke-width="1.99924" stroke-linecap="round" stroke-linejoin="round"/>
<path d="M19.9978 17.9985V15.9992C19.9978 15.469 20.2084 14.9605 20.5834 14.5856C20.9583 14.2106 21.4668 14 21.997 14H25.9955C26.5257 14 27.0343 14.2106 27.4092 14.5856C27.7841 14.9605 27.9948 15.469 27.9948 15.9992V17.9985" stroke="white" stroke-width="1.99924" stroke-linecap="round" stroke-linejoin="round"/>
</svg>
