<svg width="76" height="46" viewBox="0 0 76 46" fill="none" xmlns="http://www.w3.org/2000/svg">
<path d="M59.5739 15.2167C59.2184 16.9594 58.8149 18.9052 58.8149 20.6894C58.5273 23.115 58.0667 25.4064 57.9207 27.8543C57.8688 28.7282 57.4742 29.5401 57.2231 30.3782C57.02 31.0541 56.9079 31.7536 56.7958 32.4505C56.5499 33.9881 56.7247 35.5685 56.4083 37.1093C56.3334 37.4747 55.5038 39.5253 55.8312 39.7534C54.9267 39.1229 53.9152 38.6182 53.0223 37.9928C52.9672 37.9538 52.9153 37.9168 52.8634 37.8797C52.456 37.584 52.1044 37.3016 51.6906 37.0685C51.4766 36.9471 51.2454 36.8404 50.9821 36.7529C50.3153 36.5319 49.6875 36.185 48.9913 36.0157C48.5409 35.9052 48.0958 35.7544 47.6525 35.5922C46.9818 35.3469 46.3124 35.0767 45.6296 34.8901C45.2184 34.7771 44.7892 34.6582 44.351 34.5452C43.0507 34.2066 41.6677 33.907 40.3905 33.9057C40.3809 33.9057 40.3757 33.9044 40.3757 33.9044V6.24341C40.3757 6.24341 40.3809 6.24469 40.3905 6.24469C42.3121 6.24469 44.4977 7.09749 46.3208 7.61429C46.4835 7.66092 46.6468 7.70628 46.8114 7.75163C47.8844 8.05124 48.9759 8.347 49.9931 8.78586C51.2198 9.3148 52.3888 9.91208 53.7224 10.1306C53.7423 10.1344 53.7641 10.1389 53.7839 10.1414C54.3226 10.2238 54.7396 10.5943 55.2444 10.7758C55.8151 10.9783 56.3705 11.1463 56.9304 11.4114C57.9764 11.9058 59.048 12.4398 59.9596 13.1636C60.1479 13.3131 59.6188 15.0015 59.5746 15.2174L59.5739 15.2167Z" fill="#F5F5F5"/>
<path d="M51.6906 37.0678C51.4766 36.9465 51.2454 36.8398 50.9821 36.7523C50.3153 36.5312 49.6876 36.1844 48.9913 36.0151C47.8581 35.7378 46.764 35.1993 45.6296 34.8888C43.9968 34.441 42.0982 33.9057 40.3905 33.9038C40.3809 33.9038 40.3757 33.9025 40.3757 33.9025V6.24341C40.3757 6.24341 40.3809 6.24469 40.3905 6.24469C42.3121 6.24469 44.4977 7.09749 46.3208 7.61429C46.4835 7.66092 46.6468 7.70628 46.8114 7.75163C46.9863 8.09404 47.1842 8.42877 47.4488 8.7552C48.0765 9.52816 48.8561 10.2794 49.0015 11.3136C49.0752 11.8279 48.9733 12.3491 48.9451 12.8685C48.8491 14.6674 49.6293 16.4586 49.3461 18.237C49.2513 18.8247 49.0444 19.3907 48.9772 19.9816C48.8234 21.357 49.4473 22.7374 49.2539 24.107C49.1309 24.9809 48.678 25.8631 48.9477 26.7044C49.1104 27.2174 49.5184 27.6103 49.7856 28.0772C50.6862 29.6481 49.874 31.6443 50.1987 33.4247C50.4351 34.7202 51.2608 35.8247 51.6912 37.0678H51.6906Z" fill="#BFBFBF"/>
<path d="M59.574 15.2167C59.2185 16.9593 58.815 18.9051 58.815 20.6893C58.5274 23.1149 58.0668 25.4063 57.9207 27.8542C57.8689 28.7281 57.4743 29.54 57.2232 30.3781C57.0201 31.054 56.908 31.7535 56.7959 32.4504C56.5499 33.988 56.7248 35.5684 56.4084 37.1093C56.3334 37.4747 55.5039 39.5252 55.8312 39.7533C54.9268 39.1228 53.9153 38.6181 53.0224 37.9927C52.9673 37.9538 52.9154 37.9167 52.8635 37.8797C52.9167 37.697 52.9743 37.5143 53.032 37.3348C53.4874 35.9102 53.9941 34.4927 54.2401 33.017C54.4873 31.542 54.4604 29.9827 53.8769 28.6048C53.6219 27.9986 53.253 27.3495 53.4612 26.7248C53.5989 26.314 53.9582 26.0253 54.2215 25.6803C54.6814 25.0818 54.848 24.3184 55.003 23.5818C55.2195 22.5546 55.4347 21.5255 55.6512 20.4983C55.8024 19.7829 55.9465 19.0073 55.6404 18.3436C55.4732 17.9801 55.1715 17.6403 55.2125 17.243C55.2804 16.5831 56.1695 16.3889 56.566 15.8574C56.9484 15.3457 56.7934 14.5938 56.4206 14.077C56.0465 13.5602 55.4975 13.2012 55.0177 12.7802C54.4073 12.243 53.8846 11.5582 53.7417 10.7603C53.7046 10.5553 53.6988 10.3419 53.7219 10.1311C53.7417 10.1349 53.7635 10.1394 53.7834 10.142C54.3221 10.2244 54.7391 10.5949 55.2438 10.7763C55.8146 10.9788 56.3699 11.1468 56.9298 11.4119C57.9758 11.9064 59.0475 12.4404 59.959 13.1642C60.1473 13.3136 59.6182 15.002 59.574 15.2179V15.2167Z" fill="#F5F5F5"/>
<path d="M47.388 36.3773C47.388 37.1688 46.5629 37.9085 45.1281 38.5403C43.7541 39.1453 41.8215 39.6518 39.5193 40.0077C37.1704 40.3711 34.4333 40.5807 31.5123 40.5807C22.7431 40.5807 15.6373 38.6994 15.6373 36.3779C15.6373 32.5029 15.4112 28.633 15.4842 24.7567C15.4971 23.9825 15.702 9.59655 15.6373 9.59399H47.388C47.5103 9.59399 47.4917 11.8311 47.4642 13.5061C47.4482 14.3959 47.4309 15.1267 47.429 15.2794C47.4258 15.8243 47.2842 16.3801 47.29 16.9039C47.297 17.6487 47.6391 18.3578 47.5968 19.1052C47.4905 20.9175 47.4584 22.7324 47.4725 24.5459C47.486 26.0797 47.427 27.6244 47.4693 29.1607C47.4841 29.7286 47.5129 30.2946 47.5654 30.8599C47.7319 32.6856 47.3873 34.5273 47.3873 36.3779L47.388 36.3773Z" fill="#F5F5F5"/>
<path d="M29.052 36.8475C29.1834 37.0794 29.471 37.1911 29.7394 37.2767C31.465 37.8242 33.3246 38.0203 35.1418 37.8485C36.0047 37.7661 36.9476 37.6166 37.6861 38.0312C38.3959 38.4298 38.6483 39.2436 38.5125 40.0077C36.2603 40.3711 33.6384 40.5807 30.8398 40.5807C28.9053 40.5807 27.0548 40.481 25.3528 40.2983C19.664 39.6908 15.6323 38.1647 15.6323 36.3779C15.6323 32.5029 15.4145 28.633 15.485 24.7567C15.4939 24.2291 15.5875 17.3625 15.6265 13.0531C15.6438 11.046 15.6515 9.59527 15.6323 9.59399H36.4518C38.0077 10.8493 37.3556 12.3153 35.4666 13.4038C33.1061 14.7645 30.2537 14.9619 27.5358 15.0935C25.8992 15.1733 23.9974 15.4103 23.1723 16.7033C22.3825 17.9464 23.0192 19.5364 23.8673 20.7476C24.7167 21.9588 25.8031 23.1406 25.9299 24.5734C26.0613 26.074 25.1094 27.4461 24.4874 28.8387C23.8654 30.2326 23.6784 32.0768 24.9621 33.0216C25.4425 33.3762 26.0581 33.5384 26.6653 33.6534C29.4616 34.1876 32.298 33.8947 35.093 33.2668C37.107 32.8144 37.7341 33.9789 35.6985 34.321C33.691 34.6583 31.5746 34.7592 29.7919 35.6644C29.307 35.9097 28.7977 36.3997 29.052 36.8487V36.8475Z" fill="#E6E6E6"/>
<path d="M47.3879 9.59261C47.3879 11.9128 40.2803 13.7941 31.5129 13.7941C22.7456 13.7941 15.6379 11.9128 15.6379 9.59261C15.6379 8.99724 16.1068 8.42934 16.9517 7.91766C19.398 6.42923 24.9965 5.38989 31.5129 5.38989C36.9987 5.38989 41.8349 6.12708 44.6873 7.24755C46.3925 7.91766 47.3879 8.72383 47.3879 9.59261Z" fill="#F5F5F5"/>
<path d="M35.5793 8.31556C34.2431 7.98466 32.8844 7.81665 31.5412 7.81665C30.1979 7.81665 28.6561 7.88181 27.3577 8.35133L27.2481 8.39094C26.7107 8.58066 25.812 8.90007 25.812 9.5261C25.812 10.0263 26.2956 10.2582 26.6832 10.4447L26.7165 10.4613C27.6037 10.8874 28.658 11.0407 29.6669 11.1423C30.2684 11.2036 30.8987 11.2349 31.5418 11.2349C32.0523 11.2349 32.568 11.2017 33.0676 11.1698C33.3271 11.1531 33.5858 11.1365 33.8453 11.125C34.4813 11.0957 35.3833 10.9826 36.077 10.6172C36.1346 10.5865 36.1987 10.5559 36.2666 10.5207C36.69 10.3144 37.2703 10.0295 37.2703 9.52674C37.2703 9.024 36.7009 8.5928 35.5799 8.3162L35.5793 8.31556Z" fill="#C6A587"/>
<path d="M37.1364 9.56435C37.1364 9.99938 36.5977 10.2683 36.205 10.4657C36.1358 10.5015 36.0698 10.5341 36.0128 10.5654C35.3422 10.9282 34.4601 11.0394 33.8401 11.07C33.5781 11.0834 33.3186 11.1 33.0586 11.1173C32.5615 11.1499 32.0484 11.1831 31.5417 11.1831C30.9031 11.1831 30.2779 11.1518 29.6803 11.0898C28.6848 10.9863 27.6439 10.8311 26.7766 10.4037L26.7433 10.3878C26.3692 10.2038 25.9458 9.99619 25.9458 9.56435C25.9458 9.0137 26.7901 8.70771 27.2942 8.52501L27.405 8.48413C28.6836 8.01013 30.1498 7.94434 31.5417 7.94434C32.9337 7.94434 34.2206 8.1149 35.5465 8.45155C36.5874 8.7141 37.1364 9.0993 37.1364 9.56435Z" fill="#B09376"/>
<path d="M36.5574 10.2787C36.4383 10.3477 36.3153 10.4091 36.2045 10.4653C36.1353 10.501 36.0693 10.533 36.0123 10.5649C35.3417 10.9271 34.4596 11.0396 33.8396 11.0702C33.5776 11.0836 33.3181 11.0996 33.0581 11.1169C32.561 11.1501 32.0479 11.1833 31.5412 11.1833C30.9865 11.1833 30.4414 11.159 29.9161 11.1124C29.9123 10.8326 29.936 10.5726 30.1871 10.4116C30.417 10.2653 30.615 10.1088 30.6585 9.81305C30.6957 9.5588 30.5637 9.30392 30.378 9.12441C30.2928 9.04073 30.1896 8.96216 30.1506 8.84717C30.1051 8.70472 30.173 8.54757 30.2812 8.446C30.5778 8.17004 31.1313 8.11127 31.5201 8.09849C31.9666 8.08252 32.406 8.16365 32.8467 8.20517C33.3104 8.24925 33.762 8.27863 34.2258 8.33996C34.9183 8.43195 35.915 8.55077 36.3358 9.19277C36.5453 9.51409 36.5696 9.89482 36.5562 10.2787H36.5574Z" fill="#91765D"/>
<path d="M25.3528 40.2977C19.664 39.6902 15.6323 38.164 15.6323 36.3773C15.6323 32.5023 15.4145 28.6324 15.485 24.7561C15.4939 24.2284 15.5875 17.3619 15.6265 13.0525C16.2043 14.8967 16.5041 17.4085 16.5144 17.8697L16.7117 26.1168C16.7366 27.2149 16.5714 28.4484 16.7174 29.5267C16.8808 30.7488 17.4534 31.7613 17.3612 33.0485C17.3087 33.7959 17.1274 34.5407 17.1946 35.2868C17.4079 37.6415 22.3185 39.2622 24.4496 39.9361C24.743 40.0294 25.0626 40.1482 25.3534 40.297L25.3528 40.2977Z" fill="#BFBFBF"/>
<path d="M44.6874 7.24755C44.1839 7.34209 43.6702 7.37786 43.159 7.34592C42.3968 7.29929 41.6582 7.10445 40.9094 6.96455C40.0056 6.79527 39.0876 6.70456 38.1691 6.61513C35.1559 6.32191 32.1312 6.0287 29.1039 6.13027C26.0759 6.2312 23.0237 6.74161 20.3141 7.98282C19.6063 8.30669 18.8383 8.80752 18.8312 9.53129C18.8242 10.2697 19.6063 10.7814 20.3013 11.1583C20.0592 11.4011 19.6255 11.3065 19.2879 11.1915C18.5743 10.952 17.8268 10.692 17.3406 10.1573C16.7321 9.49104 16.6898 8.68614 16.9512 7.91702C19.3981 6.42923 24.9966 5.38989 31.513 5.38989C36.9988 5.38989 41.835 6.12708 44.6874 7.24755Z" fill="#F5F5F5"/>
<path d="M44.6862 36.3772C44.6862 37.1686 43.9309 37.9084 42.6178 38.5402C42.6043 38.3613 42.5992 38.1844 42.5967 38.0112C42.5845 37.0971 42.5697 36.0725 41.9189 35.4273C41.7345 35.2433 41.4981 35.0925 41.3962 34.853C41.2156 34.4307 41.5256 33.9682 41.8427 33.6348C42.1604 33.3013 42.5294 32.9219 42.4813 32.4645C42.4147 31.8352 41.582 31.4583 41.6051 30.8266C41.6185 30.4803 41.8908 30.2082 42.0541 29.9016C42.3936 29.2634 42.2027 28.3933 41.6262 27.9545C40.675 27.2294 39.1985 27.7731 38.1787 27.1483C38.4875 26.3792 39.2491 25.9007 39.9864 25.5213C40.7237 25.1431 41.5179 24.7828 42.008 24.1152C42.4986 23.4477 42.5236 22.3534 41.8222 21.9114C41.5205 21.7197 41.1112 21.6584 40.9216 21.3569C40.6532 20.9301 41.0234 20.3852 41.4283 20.0844C41.8318 19.7835 42.334 19.4979 42.425 19.0022C42.5268 18.4477 42.0266 17.9482 41.4962 17.7495C40.9658 17.5521 40.379 17.5419 39.8499 17.3407C39.6052 17.2487 39.3452 17.066 39.342 16.8047C39.3407 16.6169 39.4771 16.4553 39.62 16.3333C40.4687 15.6018 41.7044 15.5603 42.7145 15.0742C43.2583 14.8129 44.0187 14.0227 44.7547 13.5046C44.74 14.3945 44.724 15.1253 44.7227 15.278C44.7201 15.8229 44.5901 16.3786 44.5958 16.9025C44.6022 17.6473 44.9155 18.3564 44.8764 19.1038C44.779 20.9161 44.7496 22.7309 44.763 24.5445C44.7752 26.0783 44.7214 27.6229 44.7605 29.1593C44.7739 29.7272 44.8008 30.2932 44.8489 30.8585C45.0013 32.6842 44.6862 34.5259 44.6862 36.3765V36.3772Z" fill="#F5F5F5"/>
</svg>
