<svg width="76" height="46" viewBox="0 0 76 46" fill="none" xmlns="http://www.w3.org/2000/svg">
<path d="M33.4427 8.69043C31.8819 12.0245 37.7006 14.4879 37.7006 14.4879V8.69043H33.4427Z" fill="#B3D7E2"/>
<path d="M41.9478 8.69043C43.498 12.0245 37.6899 14.4879 37.6899 14.4879V8.69043H41.9478Z" fill="#B3D7E2"/>
<path d="M33.432 8.87106C33.432 8.80735 33.432 8.74364 33.432 8.67993L31.6694 9.16836C31.7225 10.3045 32.1048 11.3451 32.6994 12.2264C33.7824 13.8297 35.5981 14.9021 37.6899 14.9021V13.1289C35.3327 13.1289 33.432 11.2176 33.432 8.87106Z" fill="#F14950"/>
<path d="M43.6784 9.13638L41.9476 8.64795C41.9476 8.72228 41.9476 8.7966 41.9476 8.87093C41.9476 11.2281 40.0364 13.1288 37.6792 13.1288V14.902C39.7603 14.902 41.5866 13.8402 42.6697 12.2262C43.2643 11.3343 43.6465 10.2831 43.6996 9.13638H43.6572H43.6784Z" fill="#F14950"/>
<path d="M48.4671 18.5759L26.7744 40.258V40.3217H48.6157V20.1899C48.6157 19.9563 48.5945 19.351 48.4671 18.5759Z" fill="#B3D7E2"/>
<path d="M53.8504 13.1926L48.467 18.576C48.5945 19.3511 48.6157 19.9563 48.6157 20.1899V20.2961L52.2895 21.411L54.7848 13.6704L53.8504 13.1926Z" fill="#B3D7E2"/>
<path d="M56.0696 14.3181L54.7848 13.6704L52.2896 21.411L53.7124 21.8357L56.0696 14.3181Z" fill="#F14950"/>
<path d="M19.3206 14.3181L21.6884 21.8357L23.1006 21.411L20.6053 13.6704L19.3206 14.3181Z" fill="#F14950"/>
<path d="M48.6156 10.5381L43.6782 9.13647L43.7207 9.14709C43.6676 10.2938 43.2854 11.345 42.6907 12.2369C41.6077 13.8403 39.7814 14.9127 37.7003 14.9127C35.6191 14.9127 33.7928 13.8509 32.7098 12.2369C32.1152 11.3556 31.7329 10.3045 31.6798 9.17895L26.7743 10.5381L20.6052 13.6704L23.1005 21.4109L26.7743 20.296V40.2579L48.467 18.5759L53.8503 13.1926L48.6156 10.5381Z" fill="#C2DFE8"/>
</svg>
