<svg width="39" height="39" viewBox="0 0 39 39" fill="none" xmlns="http://www.w3.org/2000/svg">
<path d="M21.512 27.1416H16.771C15.8082 27.1416 15.016 27.9216 15.0282 28.8844V33.6254C15.0282 34.5882 15.8082 35.3682 16.771 35.3682H17.0733C17.2788 35.7345 17.5781 36.0395 17.9405 36.2517C18.303 36.464 18.7154 36.5759 19.1354 36.5759C19.5554 36.5759 19.9678 36.464 20.3303 36.2517C20.6927 36.0395 20.9921 35.7345 21.1975 35.3682H21.512C22.4748 35.3682 23.2548 34.5882 23.2548 33.6254V28.8844C23.2548 27.9216 22.4748 27.1416 21.512 27.1416Z" fill="#9B9B9B"/>
<path d="M22.1336 28.1897C22.4261 28.1897 22.6577 27.9703 22.682 27.69C22.7674 26.6419 23.2183 24.0947 25.6802 21.3647C26.8551 20.44 27.8202 19.2762 28.5114 17.9504C29.2027 16.6246 29.6044 15.1671 29.6899 13.6744C29.7142 13.3819 29.7264 13.1869 29.7264 13.065V12.9431C29.6533 7.1175 24.9367 2.4375 19.1233 2.4375C16.3333 2.43735 13.656 3.53811 11.6729 5.50063C9.68983 7.46316 8.56126 10.1289 8.53236 12.9188C8.53236 12.9188 8.52017 13.2112 8.56892 13.6987C8.76392 16.7944 10.2752 19.5366 12.5786 21.3525C15.0405 24.0947 15.528 26.6419 15.6133 27.69C15.6377 27.9703 15.8692 28.1897 16.1617 28.1897H22.1336Z" fill="#FCD53F"/>
<path d="M19.1355 13.0405C21.1099 13.0405 22.7187 14.6371 22.743 16.6115V16.709C22.743 16.7455 22.743 16.7943 22.7309 16.8674C22.6699 17.8912 22.1702 18.854 21.3659 19.4877L21.2805 19.5487L21.2074 19.6218C19.8668 21.1087 19.5865 24.8868 19.5377 26.9587H18.7455C18.6846 24.8868 18.3921 21.1087 17.0515 19.6218L16.9784 19.5487L16.893 19.4877C16.4905 19.1694 16.1605 18.7688 15.9251 18.3127C15.6897 17.8566 15.5543 17.3556 15.528 16.843C15.528 16.7943 15.5159 16.7577 15.5159 16.7333V16.6237C15.5524 14.6493 17.1734 13.0405 19.1355 13.0405ZM19.1355 11.8218C18.1326 11.8221 17.1548 12.1349 16.3378 12.7166C15.5209 13.2984 14.9055 14.1201 14.5771 15.0678C14.2487 16.0154 14.2237 17.0417 14.5055 18.0042C14.7873 18.9667 15.362 19.8175 16.1496 20.4383C17.6121 22.0715 17.539 28.1896 17.539 28.1896H20.7565C20.7565 28.1896 20.659 22.0715 22.1337 20.4505C23.1818 19.6218 23.8765 18.3665 23.9618 16.9405C23.974 16.8065 23.974 16.7212 23.974 16.6602V16.6115C23.9611 15.3367 23.4457 14.1185 22.5397 13.2216C21.6337 12.3248 20.4104 11.8217 19.1355 11.8218Z" fill="#FFB02E"/>
<path d="M23.3598 30.5333C23.4387 30.5195 23.5141 30.4903 23.5817 30.4474C23.6494 30.4045 23.7079 30.3487 23.7539 30.2832C23.8 30.2176 23.8327 30.1437 23.8502 30.0655C23.8677 29.9874 23.8696 29.9065 23.8558 29.8276C23.842 29.7487 23.8129 29.6733 23.77 29.6057C23.727 29.538 23.6712 29.4795 23.6057 29.4335C23.5402 29.3874 23.4662 29.3547 23.3881 29.3372C23.3099 29.3197 23.229 29.3178 23.1501 29.3316L14.9358 30.7697C14.8569 30.7835 14.7814 30.8126 14.7138 30.8556C14.6462 30.8985 14.5877 30.9543 14.5416 31.0198C14.4955 31.0853 14.4628 31.1593 14.4454 31.2375C14.4279 31.3156 14.426 31.3965 14.4397 31.4754C14.4535 31.5543 14.4827 31.6297 14.5256 31.6973C14.5685 31.7649 14.6243 31.8235 14.6898 31.8695C14.7554 31.9156 14.8293 31.9483 14.9075 31.9658C14.9856 31.9832 15.0665 31.9852 15.1454 31.9714L23.3598 30.5333ZM23.2988 33.1536C23.4562 33.1239 23.5956 33.0334 23.6867 32.9017C23.7779 32.77 23.8136 32.6077 23.786 32.45C23.7585 32.2922 23.6699 32.1516 23.5395 32.0586C23.4091 31.9657 23.2473 31.9277 23.0892 31.9531L14.9845 33.3791C14.903 33.3898 14.8245 33.417 14.7538 33.4589C14.6831 33.5008 14.6216 33.5565 14.5729 33.6228C14.5243 33.6891 14.4896 33.7646 14.4709 33.8447C14.4523 33.9247 14.45 34.0077 14.4642 34.0887C14.4784 34.1697 14.5089 34.2469 14.5538 34.3158C14.5987 34.3847 14.657 34.4438 14.7253 34.4895C14.7936 34.5352 14.8705 34.5667 14.9513 34.582C15.032 34.5972 15.1151 34.596 15.1954 34.5783L23.2988 33.1536Z" fill="#D3D3D3"/>
<path d="M16.8078 6.63005C15.4549 8.97005 16.1374 11.895 18.3312 13.1504C20.525 14.4057 23.389 13.5404 24.7418 11.2004C26.0946 8.86036 25.4121 5.93536 23.2184 4.68005C21.0246 3.42473 18.1606 4.29005 16.8078 6.63005Z" fill="#FFF478"/>
</svg>
