<svg width="40" height="40" viewBox="0 0 40 40" fill="none" xmlns="http://www.w3.org/2000/svg">
<path fill-rule="evenodd" clip-rule="evenodd" d="M20 9.2C18.111 9.19965 16.255 9.69476 14.6172 10.6359C12.9793 11.577 11.617 12.9313 10.6661 14.5635C9.71526 16.1957 9.20911 18.0487 9.19821 19.9377C9.18731 21.8266 9.67204 23.6854 10.604 25.3284C11.2339 24.5098 12.0437 23.8469 12.9707 23.3912C13.8977 22.9354 14.917 22.6989 15.95 22.7H24.05C25.083 22.6989 26.1023 22.9354 27.0293 23.3912C27.9563 23.8469 28.7661 24.5098 29.396 25.3284C30.328 23.6854 30.8127 21.8266 30.8018 19.9377C30.7909 18.0487 30.2847 16.1957 29.3339 14.5635C28.383 12.9313 27.0207 11.577 25.3828 10.6359C23.745 9.69476 21.889 9.19965 20 9.2ZM30.723 28.2026C30.8922 27.9821 31.0542 27.7562 31.209 27.5249C32.7057 25.301 33.5035 22.6806 33.5 20C33.5 12.5439 27.456 6.5 20 6.5C12.544 6.5 6.50001 12.5439 6.50001 20C6.49576 22.9656 7.47207 25.8495 9.27696 28.2026L9.27021 28.2269L9.74946 28.7844C11.0156 30.2647 12.5877 31.4529 14.3573 32.267C16.127 33.081 18.0521 33.5017 20 33.5C20.2916 33.5 20.5814 33.491 20.8694 33.473C23.3053 33.3194 25.6534 32.505 27.6612 31.1172C28.6215 30.4548 29.4919 29.6707 30.2505 28.7844L30.7298 28.2269L30.723 28.2026ZM20 11.9C18.9259 11.9 17.8957 12.3267 17.1362 13.0862C16.3767 13.8457 15.95 14.8759 15.95 15.95C15.95 17.0241 16.3767 18.0543 17.1362 18.8138C17.8957 19.5733 18.9259 20 20 20C21.0741 20 22.1043 19.5733 22.8638 18.8138C23.6233 18.0543 24.05 17.0241 24.05 15.95C24.05 14.8759 23.6233 13.8457 22.8638 13.0862C22.1043 12.3267 21.0741 11.9 20 11.9Z" fill="#666666"/>
</svg>
