<svg width="40" height="40" viewBox="0 0 40 40" fill="none" xmlns="http://www.w3.org/2000/svg">
<circle cx="20" cy="20" r="20" fill="white"/>
<circle cx="20" cy="20" r="18" fill="#FE9A00"/>
<g clip-path="url(#clip0_352_2459)">
<path d="M22.4984 27.4979V23.3318C22.4984 23.1108 22.4107 22.8988 22.2544 22.7426C22.0981 22.5863 21.8862 22.4985 21.6652 22.4985H18.3323C18.1113 22.4985 17.8993 22.5863 17.7431 22.7426C17.5868 22.8988 17.499 23.1108 17.499 23.3318V27.4979" stroke="white" stroke-width="1.66647" stroke-linecap="round" stroke-linejoin="round"/>
<path d="M24.81 18.5907C24.6363 18.4244 24.4051 18.3316 24.1647 18.3316C23.9242 18.3316 23.693 18.4244 23.5193 18.5907C23.1319 18.9602 22.617 19.1664 22.0816 19.1664C21.5461 19.1664 21.0313 18.9602 20.6438 18.5907C20.4702 18.4247 20.2392 18.332 19.9989 18.332C19.7586 18.332 19.5276 18.4247 19.354 18.5907C18.9665 18.9605 18.4514 19.1668 17.9158 19.1668C17.3802 19.1668 16.8651 18.9605 16.4776 18.5907C16.3039 18.4244 16.0728 18.3316 15.8323 18.3316C15.5918 18.3316 15.3607 18.4244 15.187 18.5907C14.8127 18.9478 14.319 19.1529 13.8018 19.1661C13.2847 19.1792 12.7811 18.9995 12.3892 18.6618C11.9973 18.3242 11.745 17.8528 11.6815 17.3394C11.618 16.826 11.7478 16.3073 12.0457 15.8843L14.4529 12.3981C14.6056 12.1727 14.8113 11.9882 15.0518 11.8606C15.2923 11.7331 15.5605 11.6665 15.8327 11.6665H24.1651C24.4365 11.6664 24.7039 11.7326 24.944 11.8594C25.184 11.9862 25.3895 12.1697 25.5424 12.3939L27.9546 15.8868C28.2525 16.3101 28.3822 16.8292 28.3183 17.3429C28.2544 17.8565 28.0015 18.328 27.609 18.6654C27.2164 19.0028 26.7123 19.182 26.1949 19.1681C25.6775 19.1541 25.1838 18.948 24.81 18.5899" stroke="white" stroke-width="1.66647" stroke-linecap="round" stroke-linejoin="round"/>
<path d="M13.333 19.124V25.8316C13.333 26.2735 13.5086 26.6974 13.8211 27.0099C14.1336 27.3225 14.5575 27.498 14.9995 27.498H24.9983C25.4403 27.498 25.8642 27.3225 26.1767 27.0099C26.4892 26.6974 26.6648 26.2735 26.6648 25.8316V19.124" stroke="white" stroke-width="1.66647" stroke-linecap="round" stroke-linejoin="round"/>
</g>
<defs>
<clipPath id="clip0_352_2459">
<rect width="19.9977" height="19.9977" fill="white" transform="translate(10 10)"/>
</clipPath>
</defs>
</svg>
