<svg width="34" height="34" viewBox="0 0 34 34" fill="none" xmlns="http://www.w3.org/2000/svg">
<path d="M23.4269 8.57069C23.9802 8.0175 24.8779 8.0174 25.431 8.57069C25.984 9.12389 25.984 10.0208 25.431 10.5739L19.0035 16.9988L25.431 23.4254C25.9843 23.9786 25.9843 24.8763 25.431 25.4296C24.8778 25.9828 23.9801 25.9828 23.4269 25.4296L17.0011 19.0029L10.5754 25.4296C10.0222 25.9825 9.12534 25.9825 8.57216 25.4296C8.01892 24.8763 8.01892 23.9786 8.57216 23.4254L14.997 16.9997L8.57216 10.5739C8.019 10.0207 8.01896 9.12389 8.57216 8.57069C9.12542 8.01754 10.0222 8.01749 10.5754 8.57069L17.0002 14.9964L23.4269 8.57069Z" fill="#666666"/>
</svg>
