<svg width="76" height="46" viewBox="0 0 76 46" fill="none" xmlns="http://www.w3.org/2000/svg">
<path fill-rule="evenodd" clip-rule="evenodd" d="M20.8909 25.989C21.4909 29.1888 23.1653 34.444 23.8508 39.2844C23.015 39.5112 19.8937 27.1632 19.8722 26.1388C19.8578 25.4399 19.6764 26.2259 20.8909 25.989Z" fill="#885F2D"/>
<path fill-rule="evenodd" clip-rule="evenodd" d="M24.2395 35.5941C24.1008 36.8483 24.0318 38.2204 23.9592 39.7267C23.9188 40.5635 22.7471 40.7151 22.491 39.9174C21.9597 38.2625 21.8219 36.4067 21.801 35.8582C21.781 35.2704 22.4154 35.7926 24.2395 35.5944V35.5941Z" fill="#885F2D"/>
<path fill-rule="evenodd" clip-rule="evenodd" d="M38.2771 36.0949C37.8853 38.487 37.9869 40.6018 38.3057 42.9684C38.4151 43.7795 39.557 43.8696 39.7865 43.0839C40.5174 40.5809 40.691 37.3408 40.7117 36.4673C40.7317 35.6429 40.1002 36.3731 38.2774 36.0949H38.2771Z" fill="#885F2D"/>
<path fill-rule="evenodd" clip-rule="evenodd" d="M48.0642 35.2804C48.2274 36.79 48.2952 38.4695 48.389 40.347C48.418 40.9256 49.207 41.0805 49.449 40.5538C50.284 38.7377 50.4746 36.2058 50.4985 35.5487C50.5185 34.9608 49.8841 35.483 48.0642 35.2804Z" fill="#885F2D"/>
<path fill-rule="evenodd" clip-rule="evenodd" d="M46.6199 22.8352C42.8827 20.6968 34.8025 18.4641 30.234 19.3116C30.1739 19.3215 21.9625 23.1763 21.3096 27.5399C24.3825 29.079 35.2654 31.3559 39.9527 31.3944C40.0883 30.2589 42.1326 26.0977 43.6528 25.4113C43.6884 25.3943 46.7186 22.8907 46.6199 22.8349V22.8352Z" fill="#FCE085"/>
<path fill-rule="evenodd" clip-rule="evenodd" d="M33.1367 3.7111C32.2094 5.62537 29.6296 17.8696 30.0165 19.3804C34.8251 19.7883 40.0111 19.1819 48.6169 24.8555C51.4283 26.7071 56.2614 10.9367 56.1885 9.09374C55.9398 2.76277 35.9313 -0.884522 33.1367 3.7111Z" fill="#F2D77A"/>
<path fill-rule="evenodd" clip-rule="evenodd" d="M55.9998 10.1479C57.5756 13.1123 56.2274 32.0906 50.4628 35.8553L39.3211 38.5087L21.8223 35.8553C21.8193 35.8454 21.8151 35.8383 21.8151 35.8266C21.7765 35.5769 19.2807 30.413 19.9566 26.6868C23.1368 28.8451 35.1296 31.0292 39.3641 31.2518C41.7455 23.3673 50.4258 19.9864 51.8614 19.3388C52.5072 16.2745 53.5069 14.2266 55.9998 10.1479Z" fill="#EEC562"/>
<path fill-rule="evenodd" clip-rule="evenodd" d="M32.741 15.3543C32.5067 17.3115 32.5495 18.7122 32.1652 20.2132C31.901 21.2433 25.0021 22.3546 21.3094 27.54C20.7381 21.4388 32.831 14.5883 32.741 15.3546V15.3543Z" fill="#EEC562"/>
<path fill-rule="evenodd" clip-rule="evenodd" d="M32.7411 15.3515C31.8554 15.0662 31.3596 15.0176 31.0569 14.9991C26.9067 14.7622 18.144 25.8921 20.0338 26.8709C20.5009 27.1105 20.7695 27.5399 21.3095 27.5399C21.3095 25.6626 23.3296 22.567 26.0138 19.8536C28.0222 17.8235 31.4968 15.8949 32.7411 15.3515Z" fill="#FFE99E"/>
<path fill-rule="evenodd" clip-rule="evenodd" d="M51.8486 19.5442C50.9629 19.2589 50.6972 18.9835 50.3942 18.9665C46.244 18.7296 37.4741 30.2734 39.3639 31.2518C39.831 31.4915 40.6298 31.4915 41.1698 31.4915C41.1698 29.6112 43.1642 26.9023 45.8471 24.1889C47.8556 22.1561 50.6028 20.0876 51.8486 19.5442Z" fill="#FFE99E"/>
</svg>
