<svg width="12" height="12" viewBox="0 0 12 12" fill="none" xmlns="http://www.w3.org/2000/svg">
<g clip-path="url(#clip0_385_977)">
<path d="M6.91041 8.27729C7.01359 8.32467 7.12983 8.3355 7.23998 8.30798C7.35014 8.28046 7.44763 8.21625 7.51641 8.12591L7.69376 7.8936C7.78684 7.76951 7.90752 7.66879 8.04626 7.59942C8.185 7.53004 8.33799 7.49393 8.49311 7.49393H9.99188C10.2569 7.49393 10.511 7.5992 10.6984 7.78658C10.8858 7.97396 10.9911 8.22811 10.9911 8.49311V9.99188C10.9911 10.2569 10.8858 10.511 10.6984 10.6984C10.511 10.8858 10.2569 10.9911 9.99188 10.9911C7.60689 10.9911 5.31958 10.0436 3.63314 8.35718C1.9467 6.67074 0.999268 4.38343 0.999268 1.99845C0.999268 1.73345 1.10454 1.4793 1.29192 1.29192C1.4793 1.10454 1.73345 0.999268 1.99845 0.999268H3.49721C3.76221 0.999268 4.01636 1.10454 4.20374 1.29192C4.39112 1.4793 4.49639 1.73345 4.49639 1.99845V3.49721C4.49639 3.65233 4.46028 3.80532 4.39091 3.94406C4.32154 4.0828 4.22082 4.20349 4.09672 4.29656L3.86291 4.47191C3.7712 4.54194 3.70655 4.64157 3.67996 4.75386C3.65337 4.86615 3.66647 4.98418 3.71703 5.08791C4.39981 6.4747 5.52276 7.59624 6.91041 8.27729Z" stroke="#6A7282" stroke-width="0.999179" stroke-linecap="round" stroke-linejoin="round"/>
</g>
<defs>
<clipPath id="clip0_385_977">
<rect width="11.9901" height="11.9901" fill="white"/>
</clipPath>
</defs>
</svg>
