<svg width="40" height="40" viewBox="0 0 40 40" fill="none" xmlns="http://www.w3.org/2000/svg">
<g clip-path="url(#clip0_352_1962)">
<path d="M21.6565 13.3318C21.9571 13.3318 22.2521 13.4131 22.5103 13.5671C22.7685 13.7211 22.9802 13.9421 23.123 14.2067L23.5279 14.9566C23.6707 15.2211 23.8824 15.4421 24.1406 15.5962C24.3988 15.7502 24.6938 15.8315 24.9944 15.8315H26.6584C27.1004 15.8315 27.5242 16.0071 27.8368 16.3196C28.1493 16.6321 28.3249 17.056 28.3249 17.498V24.9971C28.3249 25.4391 28.1493 25.8629 27.8368 26.1755C27.5242 26.488 27.1004 26.6636 26.6584 26.6636H13.3266C12.8847 26.6636 12.4608 26.488 12.1483 26.1755C11.8357 25.8629 11.6602 25.4391 11.6602 24.9971V17.498C11.6602 17.056 11.8357 16.6321 12.1483 16.3196C12.4608 16.0071 12.8847 15.8315 13.3266 15.8315H14.9906C15.2909 15.8315 15.5857 15.7504 15.8437 15.5967C16.1016 15.4429 16.3133 15.2224 16.4563 14.9583L16.8637 14.205C17.0067 13.9409 17.2183 13.7203 17.4763 13.5666C17.7343 13.4129 18.0291 13.3318 18.3294 13.3318H21.6565Z" stroke="#569F87" stroke-width="1.66647" stroke-linecap="round" stroke-linejoin="round"/>
<path d="M19.9924 23.3305C21.3729 23.3305 22.4921 22.2113 22.4921 20.8308C22.4921 19.4502 21.3729 18.3311 19.9924 18.3311C18.6118 18.3311 17.4927 19.4502 17.4927 20.8308C17.4927 22.2113 18.6118 23.3305 19.9924 23.3305Z" stroke="#569F87" stroke-width="1.66647" stroke-linecap="round" stroke-linejoin="round"/>
</g>
<defs>
<clipPath id="clip0_352_1962">
<rect width="19.9977" height="19.9977" fill="white" transform="translate(9.99365 9.99878)"/>
</clipPath>
</defs>
</svg>
