<svg width="76" height="46" viewBox="0 0 76 46" fill="none" xmlns="http://www.w3.org/2000/svg">
<path d="M44.3655 40.8864H32.5908L33.2645 35.8203H43.788L44.3655 40.8864Z" fill="#81858A"/>
<path d="M15.2581 31.5774V34.706C15.2581 35.3413 15.7777 35.861 16.4131 35.861H60.543C61.1776 35.861 61.6973 35.3413 61.6973 34.706V31.5774H15.2581Z" fill="#D0D6DB"/>
<path d="M61.698 5.01292C61.698 4.37759 61.1783 3.85791 60.5437 3.85791H16.4131C15.7777 3.85791 15.2581 4.37759 15.2581 5.01292V31.5774H61.698V5.01292Z" fill="#3E3D40"/>
<path d="M60.0624 5.39819H16.8945V30.0379H60.0624V5.39819Z" fill="#ECEDED"/>
<path d="M32.5907 40.8865H44.3654L46.4366 41.3761L30.5195 41.3874L32.5907 40.8865Z" fill="#D0D6DB"/>
<path d="M46.3276 41.6478H30.6276L30.5232 41.3872L46.4365 41.376L46.3276 41.6478Z" fill="#81858A"/>
<path d="M39.3038 33.8551C39.3038 34.311 38.9343 34.6812 38.4777 34.6812C38.0211 34.6812 37.6516 34.3117 37.6516 33.8551C37.6516 33.3985 38.0211 33.0291 38.4777 33.0291C38.9343 33.0291 39.3038 33.3993 39.3038 33.8551Z" fill="#3E3D40"/>
</svg>
