<svg width="14" height="14" viewBox="0 0 14 14" fill="none" xmlns="http://www.w3.org/2000/svg">
<path fill-rule="evenodd" clip-rule="evenodd" d="M7.3466 13.5672L7.3396 13.5683L7.29818 13.5888L7.28652 13.5911L7.27835 13.5888L7.23693 13.5678C7.23071 13.5662 7.22604 13.5674 7.22293 13.5713L7.2206 13.5771L7.21068 13.8268L7.2136 13.8384L7.21943 13.846L7.2801 13.8892L7.28885 13.8915L7.29585 13.8892L7.35652 13.846L7.36352 13.8367L7.36585 13.8268L7.35593 13.5777C7.35438 13.5714 7.35127 13.5679 7.3466 13.5672ZM7.5006 13.5013L7.49243 13.5024L7.3851 13.5567L7.37927 13.5625L7.37752 13.5689L7.38802 13.8198L7.39093 13.8268L7.3956 13.8314L7.51285 13.8851C7.52024 13.887 7.52588 13.8855 7.52977 13.8804L7.5321 13.8723L7.51227 13.5141C7.51032 13.5067 7.50643 13.5024 7.5006 13.5013ZM7.08352 13.5024C7.08095 13.5009 7.07787 13.5004 7.07494 13.501C7.07201 13.5017 7.06944 13.5034 7.06777 13.5059L7.06427 13.5141L7.04443 13.8723C7.04482 13.8793 7.04813 13.8839 7.05435 13.8863L7.0631 13.8851L7.18035 13.8308L7.18618 13.8262L7.18793 13.8198L7.19843 13.5689L7.19668 13.5619L7.19085 13.5561L7.08352 13.5024Z" fill="#569F87"/>
<path fill-rule="evenodd" clip-rule="evenodd" d="M2.91667 1.75C2.60725 1.75 2.3105 1.87292 2.09171 2.09171C1.87292 2.3105 1.75 2.60725 1.75 2.91667V11.0833C1.75 11.3928 1.87292 11.6895 2.09171 11.9083C2.3105 12.1271 2.60725 12.25 2.91667 12.25H11.0833C11.3928 12.25 11.6895 12.1271 11.9083 11.9083C12.1271 11.6895 12.25 11.3928 12.25 11.0833V2.91667C12.25 2.60725 12.1271 2.3105 11.9083 2.09171C11.6895 1.87292 11.3928 1.75 11.0833 1.75H2.91667ZM9.8875 5.71433C9.99696 5.60495 10.0585 5.45657 10.0585 5.30183C10.0586 5.14709 9.99717 4.99867 9.88779 4.88921C9.77841 4.77975 9.63003 4.71823 9.47529 4.71817C9.32055 4.71812 9.17212 4.77954 9.06267 4.88892L6.17517 7.77642L4.93792 6.53917C4.88376 6.48497 4.81945 6.44197 4.74868 6.41262C4.6779 6.38328 4.60203 6.36816 4.52541 6.36813C4.37067 6.36808 4.22225 6.4295 4.11279 6.53888C4.00333 6.64825 3.94181 6.79664 3.94176 6.95138C3.9417 7.10612 4.00312 7.25454 4.1125 7.364L5.72133 8.97283C5.78092 9.03245 5.85167 9.07974 5.92954 9.11201C6.00741 9.14427 6.09088 9.16088 6.17517 9.16088C6.25946 9.16088 6.34292 9.14427 6.42079 9.11201C6.49866 9.07974 6.56941 9.03245 6.629 8.97283L9.8875 5.71433Z" fill="#569F87"/>
</svg>
