<svg width="22" height="20" viewBox="0 0 22 20" fill="none" xmlns="http://www.w3.org/2000/svg">
<path d="M10.6996 0C4.78956 0 0 3.80699 0 8.50259C0 11.4126 1.84085 13.9815 4.64634 15.5186L3.87125 19.6625C3.83333 19.8689 4.06081 20.0205 4.23773 19.9068L8.83352 16.8789C8.83352 16.8789 10.0636 17.0094 10.6996 17.0094C16.6097 17.0094 21.3993 13.2024 21.3993 8.5068C21.3993 3.80699 16.6097 0 10.6996 0Z" fill="#3C1E1E"/>
<path d="M6.36923 6.13153H3.28571C2.99505 6.13153 2.75916 6.36736 2.75916 6.65794C2.75916 6.94852 2.99505 7.18857 3.28571 7.18857H4.28828V10.9113C4.28828 11.0461 4.34304 11.1809 4.43993 11.2735C4.5326 11.3704 4.6674 11.4251 4.8022 11.4251H4.91594C5.05074 11.4251 5.18132 11.3704 5.27399 11.2735C5.37088 11.1767 5.42564 11.0461 5.42564 10.9071V7.18435H6.37344C6.6641 7.18435 6.9 6.94852 6.9 6.65373C6.89158 6.37157 6.65568 6.13153 6.36923 6.13153Z" fill="#F9E000"/>
<path d="M13.5852 10.4314H12.153V6.62856C12.153 6.3127 11.896 6.05582 11.5843 6.05582C11.2684 6.05582 11.0156 6.3127 11.0156 6.62856V10.7262C11.0156 10.7557 11.0156 10.8778 11.0156 10.9115C11.0156 11.1768 11.2305 11.3916 11.4916 11.3916H13.5852C13.8506 11.3916 14.0612 11.1768 14.0612 10.9115C14.0612 10.6504 13.8464 10.4314 13.5852 10.4314Z" fill="#F9E000"/>
<path d="M18.1853 10.6083L16.5887 8.49415L18.0336 7.03704C18.2274 6.83911 18.2274 6.51907 18.0336 6.32535C17.8398 6.12741 17.5197 6.12741 17.3259 6.32535L15.5398 8.12776V6.63277C15.5398 6.31691 15.2829 6.06003 14.9711 6.06003C14.6552 6.06003 14.4025 6.31691 14.4025 6.63277V10.8567C14.4025 11.1726 14.6594 11.4295 14.9711 11.4295C15.2871 11.4295 15.5398 11.1726 15.5398 10.8567V9.55542L15.8642 9.22692L17.3765 11.2273C17.545 11.4547 17.8651 11.501 18.0884 11.3284C18.3116 11.1557 18.3538 10.8357 18.1853 10.6083Z" fill="#F9E000"/>
<path d="M10.6703 10.7431L9.13273 6.50641L9.12852 6.50219C9.03163 6.2453 8.74518 6.05582 8.40818 6.05582C8.32393 6.05582 8.23968 6.06843 8.15965 6.08949C8.08382 6.11055 8.01221 6.14423 7.94481 6.18634C7.88162 6.22846 7.82686 6.27477 7.78052 6.33373C7.75104 6.37163 7.72155 6.41377 7.70049 6.46009C7.68364 6.49799 7.60781 6.71699 7.58254 6.78437C7.57411 6.80964 7.56569 6.83066 7.55726 6.85593C7.54884 6.88541 7.5362 6.91071 7.52778 6.94019C7.51514 6.97388 7.50251 7.00335 7.48987 7.03704C7.47723 7.07495 7.46459 7.10864 7.44774 7.14654C7.43089 7.18445 7.41825 7.22657 7.4014 7.26447C7.38455 7.30659 7.3677 7.34867 7.35507 7.395C7.33822 7.44132 7.32137 7.48768 7.30452 7.53401C7.28767 7.58454 7.2666 7.63086 7.24976 7.68139C7.23291 7.73193 7.21184 7.78246 7.19499 7.833C7.17393 7.88353 7.15708 7.93828 7.13602 7.98881C7.11495 8.04356 7.0981 8.09831 7.07704 8.14885C7.05598 8.2036 7.03492 8.25835 7.01386 8.3131C6.9928 8.36784 6.97173 8.42681 6.95067 8.48156C6.92961 8.53631 6.90855 8.59523 6.88748 8.64997C6.86642 8.70472 6.84536 8.76369 6.8243 8.81844C6.80324 8.87319 6.78217 8.93216 6.76111 8.9869C6.74005 9.04165 6.71899 9.09641 6.69792 9.15537C6.67686 9.21012 6.6558 9.26487 6.63895 9.31962C6.61789 9.37436 6.60104 9.4249 6.57998 9.47965C6.55891 9.53019 6.54206 9.58493 6.521 9.63547C6.50415 9.686 6.48309 9.73653 6.46624 9.78286C6.44939 9.82918 6.43254 9.8797 6.41147 9.92603C6.39462 9.97235 6.37778 10.0145 6.36093 10.0608C6.34408 10.1029 6.33144 10.145 6.31459 10.1871C6.30195 10.225 6.28511 10.2629 6.27247 10.3008C6.25983 10.3345 6.24719 10.3724 6.23455 10.4061C6.22191 10.4356 6.21349 10.4693 6.20085 10.4988C6.19243 10.524 6.17979 10.5535 6.17137 10.5788C6.16294 10.5999 6.15452 10.6209 6.14609 10.642C6.14188 10.6588 6.13345 10.6757 6.12924 10.6925C6.12503 10.7052 6.12081 10.7136 6.1166 10.7262C6.1166 10.7304 6.11239 10.7388 6.10818 10.7431C6.0155 11.0126 6.15451 11.3031 6.4199 11.3958C6.68528 11.4884 6.97595 11.3495 7.06862 11.0799L7.32979 10.3261H9.43181L9.69298 11.0799C9.78566 11.3495 10.0763 11.4884 10.3417 11.3958C10.6239 11.3073 10.7672 11.0126 10.6703 10.7431ZM7.67943 9.37437L8.38712 7.34446C8.39554 7.34446 8.40397 7.34868 8.40818 7.34868L9.11588 9.37858H7.67943V9.37437Z" fill="#F9E000"/>
</svg>
