<svg width="76" height="46" viewBox="0 0 76 46" fill="none" xmlns="http://www.w3.org/2000/svg">
<path d="M54.6617 33.5757C55.8135 33.0267 57.4494 32.4338 59.12 32.0368C59.7042 31.8868 60.8853 31.6639 61.4388 31.601C62.2204 31.4856 63.014 31.4396 63.8123 31.4113C64.4465 31.3887 64.978 31.9158 64.9994 32.5887C65.022 33.3104 64.4532 33.8927 63.7756 33.846C63.048 33.7965 62.3591 33.7526 61.5995 33.7823C61.1047 33.7838 59.9796 33.8715 59.4367 33.9507C56.9732 34.2592 55.1499 34.9307 55.1559 34.9286C54.7964 35.0531 54.4096 34.8451 54.2923 34.4637C54.1829 34.1085 54.3483 33.7264 54.6624 33.575L54.6617 33.5757Z" fill="#302826"/>
<path d="M21.6921 33.5757C20.5403 33.0267 18.9044 32.4338 17.2338 32.0368C16.6496 31.8868 15.4685 31.6639 14.915 31.601C14.1334 31.4856 13.3398 31.4396 12.5415 31.4113C11.9073 31.3887 11.3758 31.9158 11.3544 32.5887C11.3317 33.3104 11.9006 33.8927 12.5782 33.846C13.3058 33.7965 13.9947 33.7526 14.7543 33.7823C15.2491 33.7838 16.3742 33.8715 16.917 33.9507C19.3806 34.2592 21.2039 34.9307 21.1979 34.9286C21.5573 35.0531 21.9441 34.8451 22.0615 34.4637C22.1709 34.1085 22.0055 33.7264 21.6914 33.575L21.6921 33.5757Z" fill="#423A38"/>
<path d="M49.916 42.7109C42.1539 44.2066 34.1998 44.2066 26.437 42.7109C22.0261 41.8611 18.8083 29.9319 18.8083 29.9319H57.544C57.544 29.9319 54.3262 41.8611 49.9153 42.7109H49.916Z" fill="#423A38"/>
<path d="M24.7578 30.4187H20.3862C20.3862 30.4187 23.1345 40.6045 27.0319 42.822C30.039 43.371 33.0727 43.6965 36.1118 43.7977C34.866 43.635 33.6236 43.4361 32.3864 43.1977C27.9756 42.3479 24.7578 30.4187 24.7578 30.4187Z" fill="#5B4B48"/>
<path d="M53.3971 29.9319C52.9597 31.4743 49.8132 42.0599 45.6144 42.8687C43.2436 43.3257 40.8547 43.6455 38.4592 43.8309C42.2946 43.8132 46.1286 43.4411 49.9166 42.7109C54.3275 41.8611 57.5453 29.9319 57.5453 29.9319H53.3978H53.3971Z" fill="#302826"/>
<path d="M38.1765 34.2473C48.8732 34.2473 57.5446 32.3153 57.5446 29.932C57.5446 27.5487 48.8732 25.6167 38.1765 25.6167C27.4798 25.6167 18.8083 27.5487 18.8083 29.932C18.8083 32.3153 27.4798 34.2473 38.1765 34.2473Z" fill="#B5B5B5"/>
<path d="M19.73 31.2501C22.2302 32.9885 29.5428 34.2479 38.1771 34.2479C46.8115 34.2479 54.1241 32.9892 56.6243 31.2501C54.1241 29.5116 46.8115 28.2522 38.1771 28.2522C29.5428 28.2522 22.2302 29.5109 19.73 31.2501Z" fill="#969696"/>
<path opacity="0.7" d="M57.5446 29.9319C57.5446 32.315 48.8736 34.2473 38.1765 34.2473C27.4794 34.2473 18.8083 32.315 18.8083 29.9319C18.8083 27.5489 27.4801 23.1211 38.1765 23.1211C48.8729 23.1211 57.5446 27.5489 57.5446 29.9319Z" fill="#E5E5E5"/>
<path d="M55.8975 27.769C56.4023 28.282 56.6744 28.7674 56.6744 29.1891C56.6744 31.5721 48.0034 33.5044 37.3063 33.5044C28.9093 33.5044 21.7608 32.3136 19.0752 30.6488C20.6071 32.6907 28.5752 34.2473 38.1759 34.2473C48.8723 34.2473 57.544 32.315 57.544 29.932C57.544 29.3115 56.9552 28.5523 55.8968 27.769H55.8975Z" fill="#E5E5E5"/>
<path d="M38.4586 25.5578C40.8693 25.5578 42.8235 24.9699 42.8235 24.2446C42.8235 23.5193 40.8693 22.9314 38.4586 22.9314C36.048 22.9314 34.0938 23.5193 34.0938 24.2446C34.0938 24.9699 36.048 25.5578 38.4586 25.5578Z" fill="#3B3B3B"/>
<path d="M40.9049 20.5074C40.1846 19.7765 39.3216 19.6477 38.4587 19.6477C37.5957 19.6477 36.7327 19.7765 36.0125 20.5074C35.5336 20.9935 35.3583 21.8531 35.581 22.6024C35.581 22.6024 35.9305 23.9439 36.3573 24.181C37.6184 24.8807 39.6871 24.7527 40.5594 24.181C40.9729 23.91 41.3357 22.6024 41.3357 22.6024C41.5584 21.8531 41.383 20.9935 40.9042 20.5074H40.9049Z" fill="#262525"/>
<path d="M40.46 20.1402C39.8418 19.7312 39.1509 19.6477 38.4586 19.6477C37.7664 19.6477 37.0755 19.7312 36.4573 20.1402C36.482 20.6178 37.3676 21.0012 38.4586 21.0012C39.5497 21.0012 40.4353 20.6178 40.46 20.1402Z" fill="#3B3B3B"/>
</svg>
