<svg width="76" height="46" viewBox="0 0 76 46" fill="none" xmlns="http://www.w3.org/2000/svg">
<path d="M49.2866 39.3358C47.2445 41.4737 44.2137 42.1578 41.2572 42.1578H33.015C30.0632 42.1578 27.0305 41.4783 25 39.3358C29.4113 37.3653 32.4765 32.9378 32.4765 27.7967C32.4765 22.6555 29.4113 18.228 25.0081 16.2494C25.3811 15.852 25.7785 15.479 26.192 15.1222C26.8732 14.5303 28.3977 14.1167 29.533 14.1167H44.7536C45.8889 14.1167 47.4134 14.5303 48.1027 15.1222C48.5162 15.479 48.9136 15.8601 49.2785 16.2575C44.8753 18.228 41.8101 22.6555 41.8101 27.7967C41.8101 32.9378 44.8753 37.3653 49.2866 39.3358Z" fill="#FAEDC6"/>
<path d="M49.1731 39.4332C47.2016 41.5001 44.2681 42.1497 41.4117 42.1497H32.8666C30.011 42.1497 27.0764 41.4995 25.1055 39.4332C25.8839 39.8468 26.7678 40.0738 27.7004 40.0738C30.3358 40.0738 32.5496 38.2898 33.1983 35.8652C33.3118 37.9412 35.0228 39.5954 37.1393 39.5954C39.2558 39.5954 40.9668 37.933 41.0803 35.8652C41.729 38.2817 43.9428 40.0738 46.5782 40.0738C47.5108 40.0738 48.3947 39.8468 49.1731 39.4332Z" fill="#F5522B"/>
<path d="M49.2784 16.2658C49.2784 16.2658 49.246 16.282 49.2298 16.2982C48.4432 15.8766 47.535 15.6414 46.5862 15.6414C43.9589 15.6414 41.7451 17.4173 41.0883 19.85C40.9748 17.7741 39.2638 16.1198 37.1473 16.1198C35.0308 16.1198 33.3198 17.7822 33.2063 19.85C32.5495 17.4173 30.3357 15.6414 27.7084 15.6414C26.7515 15.6414 25.8595 15.8766 25.0729 16.2901L25.0081 16.2577C25.3892 15.8684 25.7784 15.4873 26.1839 15.1305C26.8731 14.5386 28.3976 14.125 29.5248 14.125H44.7455C45.8726 14.125 47.4134 14.5386 48.0864 15.1305C48.5081 15.4873 48.8973 15.8684 49.2703 16.2658H49.2784Z" fill="#F5522B"/>
<path d="M40.537 34.7462C38.8746 33.0433 38.0718 30.5862 38.0069 28.1941C37.9502 25.8019 38.6313 23.3205 40.172 21.5122C39.7666 22.615 39.4584 23.7098 39.2719 24.8207C39.0854 25.9397 38.9962 27.0345 39.0368 28.1616C39.0854 30.3997 39.5801 32.5973 40.5451 34.7381L40.537 34.7462Z" fill="#E0D3AD"/>
<path d="M33.7498 34.7461C34.7147 32.6053 35.2094 30.4078 35.258 28.1697C35.2986 27.0344 35.2094 25.9397 35.0229 24.8288C34.8283 23.7178 34.5201 22.6231 34.1228 21.5203C35.6635 23.3286 36.3447 25.81 36.2879 28.2021C36.223 30.5943 35.4202 33.0513 33.7579 34.7542L33.7498 34.7461Z" fill="#E0D3AD"/>
<path d="M38.7772 14.2547C38.7772 14.4494 38.0474 14.6115 37.1473 14.6115C36.2472 14.6115 35.5093 14.4494 35.5093 14.2547C35.5093 14.2061 35.5498 14.1574 35.639 14.125H38.6556C38.7367 14.1655 38.7772 14.2061 38.7772 14.2547Z" fill="#AD3A1E"/>
<path d="M35.266 5.78882C35.5174 6.15372 35.6795 6.51052 35.8336 6.84299C35.9877 7.18357 36.1174 7.51604 36.2472 7.85662C36.4986 8.52968 36.7094 9.21084 36.904 9.9001C37.0905 10.5894 37.2608 11.2868 37.3824 12.0003C37.4879 12.7139 37.5771 13.4438 37.4473 14.2141C37.4149 14.4006 37.2365 14.5304 37.05 14.4979C36.8959 14.4736 36.7824 14.3439 36.7662 14.1898V14.1655C36.7013 13.5411 36.531 12.8842 36.3283 12.2436C36.1337 11.603 35.8904 10.9624 35.6309 10.338C35.3714 9.7136 35.0795 9.09731 34.7713 8.49724C34.4632 7.91339 34.1307 7.27277 33.7982 6.87543C33.4739 6.4862 33.5225 5.91045 33.9037 5.58609C34.2929 5.26173 34.8686 5.31038 35.193 5.69151C35.2092 5.71584 35.2336 5.74016 35.2498 5.76449L35.266 5.78882Z" fill="#735459"/>
<path d="M37.115 12.6248C37.0582 12.6248 37.0015 12.6086 36.9528 12.5762C36.8312 12.487 36.7987 12.3167 36.8879 12.1869C37.7637 10.9381 38.7287 9.98126 39.6126 9.49472C39.7504 9.42174 39.9126 9.47039 39.9937 9.60014C40.0667 9.73799 40.018 9.90017 39.8883 9.98126C39.0774 10.4273 38.1773 11.3193 37.3502 12.5032C37.2934 12.5762 37.2123 12.6248 37.1231 12.6248H37.115Z" fill="#735459"/>
<path d="M54.006 6.34835C52.8626 8.05936 49.5055 10.3461 47.1376 10.7353C44.9076 11.1003 41.0477 10.7029 39.507 10.2326C39.4178 10.2083 39.3286 10.1839 39.2556 10.1515C39.2881 9.95688 39.3205 9.77037 39.3691 9.57576C40.026 6.8349 42.1019 4.18324 45.1509 3.71291C48.4107 3.21015 51.5976 5.77261 53.9979 6.34835H54.006Z" fill="#94CD1C"/>
<path d="M46.943 6.93232C45.532 6.94854 44.1535 7.32156 42.9047 7.92163C42.2803 8.22166 41.6802 8.57035 41.1126 8.96769C40.5531 9.34882 40.0422 9.7786 39.507 10.2246C39.4178 10.2003 39.3286 10.1759 39.2556 10.1435C39.2881 9.94889 39.3205 9.76238 39.3691 9.56776C39.8476 9.22718 40.3422 8.87849 40.8531 8.57035C41.4694 8.20544 42.1019 7.88919 42.7749 7.6297C44.1048 7.11072 45.532 6.84312 46.943 6.92421V6.93232Z" fill="#39A22B"/>
<path d="M40.5371 27.8131C40.5371 28.5592 40.3101 28.8106 40.0263 28.8106C39.7424 28.8106 39.5154 28.5592 39.5154 27.8131C39.5154 27.0671 40.0263 26.467 40.0263 26.467C40.0263 26.467 40.5371 27.0671 40.5371 27.8131Z" fill="#735459"/>
<path d="M34.7715 27.8131C34.7715 28.5592 34.5444 28.8106 34.2606 28.8106C33.9768 28.8106 33.7498 28.5592 33.7498 27.8131C33.7498 27.0671 34.2606 26.467 34.2606 26.467C34.2606 26.467 34.7715 27.0671 34.7715 27.8131Z" fill="#735459"/>
</svg>
