<svg width="25" height="25" viewBox="0 0 25 25" fill="none" xmlns="http://www.w3.org/2000/svg">
<path d="M12.5001 4.16675C7.89696 4.16675 4.16675 7.898 4.16675 12.5001C4.16675 17.1022 7.89696 20.8334 12.5001 20.8334C17.1032 20.8334 20.8334 17.1022 20.8334 12.5001C20.8334 7.898 17.1032 4.16675 12.5001 4.16675ZM16.3615 14.8886C16.5569 15.0839 16.6666 15.3489 16.6666 15.6251C16.6666 15.9013 16.5569 16.1662 16.3615 16.3615C16.1662 16.5569 15.9013 16.6666 15.6251 16.6666C15.3489 16.6666 15.0839 16.5569 14.8886 16.3615L12.5001 13.973L10.1115 16.3615C10.015 16.4586 9.90027 16.5356 9.77389 16.5882C9.6475 16.6408 9.51196 16.6678 9.37508 16.6678C9.2382 16.6678 9.10266 16.6408 8.97628 16.5882C8.84989 16.5356 8.73514 16.4586 8.63862 16.3615C8.44334 16.1662 8.33364 15.9013 8.33364 15.6251C8.33364 15.3489 8.44334 15.084 8.63862 14.8886L11.0272 12.5001L8.63862 10.1115C8.4433 9.91622 8.33357 9.65131 8.33357 9.37508C8.33357 9.09886 8.4433 8.83394 8.63862 8.63862C8.83394 8.4433 9.09886 8.33357 9.37508 8.33357C9.65131 8.33357 9.91622 8.4433 10.1115 8.63862L12.5001 11.0272L14.8886 8.63862C15.0839 8.4433 15.3489 8.33357 15.6251 8.33357C15.9013 8.33357 16.1662 8.4433 16.3615 8.63862C16.5569 8.83394 16.6666 9.09886 16.6666 9.37508C16.6666 9.65131 16.5569 9.91622 16.3615 10.1115L13.973 12.5001L16.3615 14.8886Z" fill="#99A1AF"/>
</svg>
