<svg width="24" height="24" viewBox="0 0 24 24" fill="none" xmlns="http://www.w3.org/2000/svg">
<path d="M6.99727 18.9927H4.8131C4.49779 18.9936 4.18759 18.913 3.91262 18.7587C3.63764 18.6044 3.40721 18.3817 3.2437 18.1121C3.08667 17.8413 3.00364 17.5339 3.00293 17.2209C3.00223 16.9079 3.08389 16.6002 3.2397 16.3287L7.19319 9.49634" stroke="#99A1AF" stroke-width="1.99924" stroke-linecap="round" stroke-linejoin="round"/>
<path d="M10.9958 18.9929H19.1957C19.5095 18.9905 19.8174 18.9074 20.0898 18.7515C20.3622 18.5957 20.5899 18.3725 20.7511 18.1032C20.906 17.8332 20.9875 17.5273 20.9875 17.2161C20.9875 16.9048 20.906 16.5989 20.7511 16.3289L19.5256 14.2097" stroke="#99A1AF" stroke-width="1.99924" stroke-linecap="round" stroke-linejoin="round"/>
<path d="M13.9947 15.9939L10.9958 18.9928L13.9947 21.9916" stroke="#99A1AF" stroke-width="1.99924" stroke-linecap="round" stroke-linejoin="round"/>
<path d="M8.2899 13.5908L7.19332 9.49634L3.09888 10.5939" stroke="#99A1AF" stroke-width="1.99924" stroke-linecap="round" stroke-linejoin="round"/>
<path d="M9.34033 5.80871L10.4329 3.91743C10.5898 3.64393 10.8147 3.41563 11.0858 3.25467C11.357 3.09371 11.6651 3.00557 11.9803 2.99878C12.2931 2.9982 12.6006 3.07991 12.8719 3.23572C13.1431 3.39152 13.3686 3.61594 13.5257 3.88644L17.4672 10.7268" stroke="#99A1AF" stroke-width="1.99924" stroke-linecap="round" stroke-linejoin="round"/>
<path d="M13.3728 9.62943L17.4672 10.727L18.5638 6.63257" stroke="#99A1AF" stroke-width="1.99924" stroke-linecap="round" stroke-linejoin="round"/>
</svg>
