<svg width="24" height="24" viewBox="0 0 24 24" fill="none" xmlns="http://www.w3.org/2000/svg">
<path d="M14.9943 20.992V12.995C14.9943 12.7299 14.889 12.4757 14.7015 12.2882C14.514 12.1007 14.2598 11.9954 13.9947 11.9954H9.9962C9.73109 11.9954 9.47683 12.1007 9.28936 12.2882C9.1019 12.4757 8.99658 12.7299 8.99658 12.995V20.992" stroke="#99A1AF" stroke-width="1.49943" stroke-linecap="round" stroke-linejoin="round"/>
<path d="M2.9989 9.99621C2.99883 9.70539 3.06221 9.41805 3.18462 9.15425C3.30703 8.89044 3.48551 8.65652 3.70763 8.46879L10.705 2.47108C11.0658 2.1661 11.523 1.99878 11.9955 1.99878C12.4679 1.99878 12.9251 2.1661 13.286 2.47108L20.2833 8.46879C20.5054 8.65652 20.6839 8.89044 20.8063 9.15425C20.9287 9.41805 20.9921 9.70539 20.992 9.99621V18.9928C20.992 19.523 20.7814 20.0315 20.4065 20.4065C20.0315 20.7814 19.523 20.992 18.9928 20.992H4.99814C4.46791 20.992 3.95939 20.7814 3.58446 20.4065C3.20953 20.0315 2.9989 19.523 2.9989 18.9928V9.99621Z" stroke="#99A1AF" stroke-width="1.49943" stroke-linecap="round" stroke-linejoin="round"/>
</svg>
