<svg width="64" height="64" viewBox="0 0 64 64" fill="none" xmlns="http://www.w3.org/2000/svg">
<g filter="url(#filter0_dd_114_551)">
<mask id="path-1-inside-1_114_551" fill="white">
<path d="M12 21.9977C12 10.9533 20.9533 2 31.9977 2C43.0421 2 51.9953 10.9533 51.9953 21.9977C51.9953 33.0421 43.0421 41.9953 31.9977 41.9953C20.9533 41.9953 12 33.0421 12 21.9977Z"/>
</mask>
<path d="M12 21.9977C12 10.9533 20.9533 2 31.9977 2C43.0421 2 51.9953 10.9533 51.9953 21.9977C51.9953 33.0421 43.0421 41.9953 31.9977 41.9953C20.9533 41.9953 12 33.0421 12 21.9977Z" fill="#FE9A00" shape-rendering="crispEdges"/>
<path d="M31.9977 41.9953V40.6431C21.7001 40.6431 13.3522 32.2953 13.3522 21.9977H12H10.6478C10.6478 33.7889 20.2065 43.3475 31.9977 43.3475V41.9953ZM51.9953 21.9977H50.6431C50.6431 32.2953 42.2953 40.6431 31.9977 40.6431V41.9953V43.3475C43.7889 43.3475 53.3475 33.7889 53.3475 21.9977H51.9953ZM31.9977 2V3.35219C42.2953 3.35219 50.6431 11.7001 50.6431 21.9977H51.9953H53.3475C53.3475 10.2065 43.7889 0.64781 31.9977 0.64781V2ZM31.9977 2V0.64781C20.2065 0.64781 10.6478 10.2065 10.6478 21.9977H12H13.3522C13.3522 11.7001 21.7001 3.35219 31.9977 3.35219V2Z" fill="white" mask="url(#path-1-inside-1_114_551)"/>
<g clip-path="url(#clip0_114_551)">
<path d="M34.4921 29.497V25.3308C34.4921 25.1098 34.4043 24.8979 34.248 24.7416C34.0918 24.5853 33.8798 24.4976 33.6588 24.4976H30.3259C30.1049 24.4976 29.893 24.5853 29.7367 24.7416C29.5804 24.8979 29.4927 25.1098 29.4927 25.3308V29.497" stroke="white" stroke-width="1.66647" stroke-linecap="round" stroke-linejoin="round"/>
<path d="M36.8035 20.5897C36.6298 20.4234 36.3986 20.3306 36.1581 20.3306C35.9177 20.3306 35.6865 20.4234 35.5128 20.5897C35.1253 20.9593 34.6105 21.1654 34.075 21.1654C33.5396 21.1654 33.0247 20.9593 32.6373 20.5897C32.4636 20.4237 32.2326 20.331 31.9924 20.331C31.7521 20.331 31.5211 20.4237 31.3474 20.5897C30.96 20.9595 30.4449 21.1658 29.9093 21.1658C29.3737 21.1658 28.8586 20.9595 28.4711 20.5897C28.2974 20.4234 28.0662 20.3306 27.8258 20.3306C27.5853 20.3306 27.3541 20.4234 27.1804 20.5897C26.8062 20.9469 26.3124 21.152 25.7953 21.1651C25.2781 21.1783 24.7746 20.9985 24.3827 20.6609C23.9908 20.3232 23.7385 19.8518 23.675 19.3384C23.6115 18.825 23.7413 18.3063 24.0391 17.8834L26.4464 14.3971C26.5991 14.1717 26.8047 13.9872 27.0453 13.8597C27.2858 13.7321 27.5539 13.6655 27.8262 13.6655H36.1586C36.43 13.6654 36.6974 13.7316 36.9374 13.8584C37.1775 13.9852 37.3829 14.1687 37.5359 14.3929L39.9481 17.8859C40.246 18.3092 40.3756 18.8282 40.3117 19.3419C40.2479 19.8556 39.995 20.327 39.6025 20.6644C39.2099 21.0019 38.7058 21.181 38.1884 21.1671C37.6709 21.1531 37.1772 20.947 36.8035 20.5889" stroke="white" stroke-width="1.66647" stroke-linecap="round" stroke-linejoin="round"/>
<path d="M25.3265 21.123V27.8306C25.3265 28.2726 25.5021 28.6964 25.8146 29.009C26.1271 29.3215 26.551 29.4971 26.993 29.4971H36.9918C37.4338 29.4971 37.8576 29.3215 38.1702 29.009C38.4827 28.6964 38.6583 28.2726 38.6583 27.8306V21.123" stroke="white" stroke-width="1.66647" stroke-linecap="round" stroke-linejoin="round"/>
</g>
</g>
<defs>
<filter id="filter0_dd_114_551" x="0" y="0" width="63.9953" height="63.9951" filterUnits="userSpaceOnUse" color-interpolation-filters="sRGB">
<feFlood flood-opacity="0" result="BackgroundImageFix"/>
<feColorMatrix in="SourceAlpha" type="matrix" values="0 0 0 0 0 0 0 0 0 0 0 0 0 0 0 0 0 0 127 0" result="hardAlpha"/>
<feMorphology radius="4" operator="erode" in="SourceAlpha" result="effect1_dropShadow_114_551"/>
<feOffset dy="4"/>
<feGaussianBlur stdDeviation="3"/>
<feComposite in2="hardAlpha" operator="out"/>
<feColorMatrix type="matrix" values="0 0 0 0 0 0 0 0 0 0 0 0 0 0 0 0 0 0 0.1 0"/>
<feBlend mode="normal" in2="BackgroundImageFix" result="effect1_dropShadow_114_551"/>
<feColorMatrix in="SourceAlpha" type="matrix" values="0 0 0 0 0 0 0 0 0 0 0 0 0 0 0 0 0 0 127 0" result="hardAlpha"/>
<feMorphology radius="3" operator="erode" in="SourceAlpha" result="effect2_dropShadow_114_551"/>
<feOffset dy="10"/>
<feGaussianBlur stdDeviation="7.5"/>
<feComposite in2="hardAlpha" operator="out"/>
<feColorMatrix type="matrix" values="0 0 0 0 0 0 0 0 0 0 0 0 0 0 0 0 0 0 0.1 0"/>
<feBlend mode="normal" in2="effect1_dropShadow_114_551" result="effect2_dropShadow_114_551"/>
<feBlend mode="normal" in="SourceGraphic" in2="effect2_dropShadow_114_551" result="shape"/>
</filter>
<clipPath id="clip0_114_551">
<rect width="19.9977" height="19.9977" fill="white" transform="translate(21.9935 11.999)"/>
</clipPath>
</defs>
</svg>
