<svg width="28" height="28" viewBox="0 0 28 28" fill="none" xmlns="http://www.w3.org/2000/svg">
<path d="M16.3267 4.66577C16.7475 4.66577 17.1605 4.7796 17.522 4.99522C17.8834 5.21083 18.1797 5.5202 18.3796 5.89054L18.9465 6.94033C19.1464 7.31067 19.4428 7.62004 19.8042 7.83565C20.1656 8.05127 20.5786 8.1651 20.9995 8.1651H23.3288C23.9476 8.1651 24.5409 8.41088 24.9784 8.84838C25.4159 9.28588 25.6617 9.87926 25.6617 10.498V20.996C25.6617 21.6147 25.4159 22.2081 24.9784 22.6456C24.5409 23.0831 23.9476 23.3288 23.3288 23.3288H4.66577C4.04705 23.3288 3.45367 23.0831 3.01617 22.6456C2.57867 22.2081 2.33289 21.6147 2.33289 20.996V10.498C2.33289 9.87926 2.57867 9.28588 3.01617 8.84838C3.45367 8.41088 4.04705 8.1651 4.66577 8.1651H6.99515C7.41557 8.16512 7.82817 8.05154 8.18934 7.83635C8.5505 7.62117 8.84681 7.31239 9.04693 6.94267L9.61732 5.8882C9.81743 5.51847 10.1137 5.2097 10.4749 4.99451C10.8361 4.77933 11.2487 4.66575 11.6691 4.66577H16.3267Z" stroke="white" stroke-width="1.74966" stroke-linecap="round" stroke-linejoin="round"/>
<path d="M13.9973 18.6631C15.9299 18.6631 17.4966 17.0964 17.4966 15.1638C17.4966 13.2311 15.9299 11.6644 13.9973 11.6644C12.0647 11.6644 10.498 13.2311 10.498 15.1638C10.498 17.0964 12.0647 18.6631 13.9973 18.6631Z" stroke="white" stroke-width="1.74966" stroke-linecap="round" stroke-linejoin="round"/>
</svg>
