<svg width="24" height="24" viewBox="0 0 24 24" fill="none" xmlns="http://www.w3.org/2000/svg">
<path d="M2.99086 16.3357C3.13784 16.7065 3.17056 17.1128 3.08482 17.5023L2.02023 20.791C1.98592 20.9578 1.99479 21.1306 2.04599 21.293C2.09719 21.4554 2.18902 21.602 2.31278 21.719C2.43654 21.8359 2.58812 21.9193 2.75315 21.9612C2.91817 22.0032 3.09118 22.0023 3.25575 21.9586L6.66745 20.961C7.03503 20.8881 7.4157 20.9199 7.76603 21.0529C9.90061 22.0498 12.3187 22.2607 14.5936 21.6484C16.8685 21.0362 18.8541 19.6401 20.2 17.7066C21.5459 15.773 22.1657 13.4263 21.9499 11.0803C21.7342 8.73433 20.6968 6.53994 19.0208 4.8843C17.3448 3.22866 15.1379 2.21816 12.7895 2.03109C10.4411 1.84402 8.10204 2.4924 6.18508 3.86183C4.26812 5.23127 2.89642 7.23375 2.31201 9.51598C1.72759 11.7982 1.96801 14.2135 2.99086 16.3357Z" stroke="#99A1AF" stroke-width="1.49943" stroke-linecap="round" stroke-linejoin="round"/>
</svg>
