<svg width="24" height="24" viewBox="0 0 24 24" fill="none" xmlns="http://www.w3.org/2000/svg">
<path d="M14.9943 20.9921V12.9951C14.9943 12.73 14.889 12.4757 14.7015 12.2883C14.514 12.1008 14.2598 11.9955 13.9947 11.9955H9.99619C9.73107 11.9955 9.47682 12.1008 9.28935 12.2883C9.10189 12.4757 8.99657 12.73 8.99657 12.9951V20.9921" stroke="#569F87" stroke-width="1.49943" stroke-linecap="round" stroke-linejoin="round"/>
<path d="M2.99886 9.99621C2.99879 9.70539 3.06217 9.41805 3.18457 9.15425C3.30698 8.89044 3.48547 8.65652 3.70759 8.46879L10.7049 2.47108C11.0658 2.1661 11.523 1.99878 11.9954 1.99878C12.4679 1.99878 12.9251 2.1661 13.2859 2.47108L20.2833 8.46879C20.5054 8.65652 20.6839 8.89044 20.8063 9.15425C20.9287 9.41805 20.9921 9.70539 20.992 9.99621V18.9928C20.992 19.523 20.7814 20.0315 20.4064 20.4065C20.0315 20.7814 19.523 20.992 18.9928 20.992H4.99809C4.46786 20.992 3.95935 20.7814 3.58442 20.4065C3.20949 20.0315 2.99886 19.523 2.99886 18.9928V9.99621Z" stroke="#569F87" stroke-width="1.49943" stroke-linecap="round" stroke-linejoin="round"/>
</svg>
