<svg width="24" height="24" viewBox="0 0 24 24" fill="none" xmlns="http://www.w3.org/2000/svg">
<path d="M6.99739 18.9927H4.81322C4.49791 18.9936 4.18772 18.913 3.91274 18.7587C3.63776 18.6044 3.40733 18.3817 3.24382 18.1121C3.08679 17.8413 3.00376 17.5339 3.00306 17.2209C3.00235 16.9079 3.08401 16.6002 3.23982 16.3287L7.19332 9.49634" stroke="#569F87" stroke-width="1.99924" stroke-linecap="round" stroke-linejoin="round"/>
<path d="M10.9958 18.9928H19.1957C19.5095 18.9903 19.8174 18.9072 20.0898 18.7514C20.3622 18.5956 20.5899 18.3724 20.7511 18.1031C20.906 17.8331 20.9875 17.5272 20.9875 17.2159C20.9875 16.9047 20.906 16.5988 20.7511 16.3288L19.5256 14.2096" stroke="#569F87" stroke-width="1.99924" stroke-linecap="round" stroke-linejoin="round"/>
<path d="M13.9947 15.9939L10.9958 18.9928L13.9947 21.9916" stroke="#569F87" stroke-width="1.99924" stroke-linecap="round" stroke-linejoin="round"/>
<path d="M8.2899 13.5908L7.19332 9.49634L3.09888 10.5939" stroke="#569F87" stroke-width="1.99924" stroke-linecap="round" stroke-linejoin="round"/>
<path d="M9.34045 5.80883L10.433 3.91755C10.5899 3.64406 10.8148 3.41575 11.086 3.25479C11.3571 3.09384 11.6652 3.00569 11.9804 2.9989C12.2933 2.99832 12.6007 3.08003 12.872 3.23584C13.1432 3.39165 13.3687 3.61606 13.5259 3.88657L17.4674 10.727" stroke="#569F87" stroke-width="1.99924" stroke-linecap="round" stroke-linejoin="round"/>
<path d="M13.3729 9.6293L17.4674 10.7269L18.5639 6.63245" stroke="#569F87" stroke-width="1.99924" stroke-linecap="round" stroke-linejoin="round"/>
</svg>
