<svg width="24" height="24" viewBox="0 0 24 24" fill="none" xmlns="http://www.w3.org/2000/svg">
<path d="M19.9924 9.99622C19.9924 14.9873 14.4555 20.1853 12.5962 21.7907C12.423 21.921 12.2121 21.9914 11.9954 21.9914C11.7787 21.9914 11.5679 21.921 11.3947 21.7907C9.53536 20.1853 3.99847 14.9873 3.99847 9.99622C3.99847 7.87529 4.84101 5.84124 6.34073 4.34152C7.84045 2.8418 9.8745 1.99927 11.9954 1.99927C14.1163 1.99927 16.1504 2.8418 17.6501 4.34152C19.1498 5.84124 19.9924 7.87529 19.9924 9.99622Z" stroke="#99A1AF" stroke-width="1.49943" stroke-linecap="round" stroke-linejoin="round"/>
<path d="M11.9954 12.995C13.6517 12.995 14.9943 11.6524 14.9943 9.99617C14.9943 8.33995 13.6517 6.99731 11.9954 6.99731C10.3392 6.99731 8.99658 8.33995 8.99658 9.99617C8.99658 11.6524 10.3392 12.995 11.9954 12.995Z" stroke="#99A1AF" stroke-width="1.49943" stroke-linecap="round" stroke-linejoin="round"/>
</svg>
